<svg width="1920" height="700" viewBox="0 0 1920 700" fill="none" xmlns="http://www.w3.org/2000/svg">
<g opacity="0.15">
<path d="M-177.036 210.079C-177.036 210.079 591.09 166.348 909.063 321.75C1227.04 477.151 1690.51 1029.71 1424.89 1135.47C1159.26 1241.22 1868.33 1479.66 1868.33 1479.66" stroke="#001515" stroke-width="0.552088" stroke-miterlimit="10"/>
<path d="M-168.731 218.547C-168.339 218.003 572.116 157.92 895.023 312.584C1217.93 467.249 1655.72 1011.09 1407.16 1120.74C1158.6 1230.38 1865.36 1471.09 1865.36 1471.09" stroke="#001212" stroke-width="0.552088" stroke-miterlimit="10"/>
<path d="M-160.441 227.016C-159.672 225.924 553.113 149.488 880.983 303.418C1208.85 457.349 1620.92 992.466 1389.43 1106.01C1157.94 1219.55 1862.39 1462.52 1862.39 1462.52" stroke="#000B0C" stroke-width="0.552088" stroke-miterlimit="10"/>
<path d="M-152.136 235.486C-150.976 233.85 534.127 141.051 866.957 294.259C1199.79 447.468 1586.13 973.851 1371.71 1091.29C1157.3 1208.73 1859.44 1453.96 1859.44 1453.96" stroke="#041A1B" stroke-width="0.552088" stroke-miterlimit="10"/>
<path d="M-143.847 243.954C-142.297 241.78 515.123 132.619 852.901 285.095C1190.68 437.57 1551.31 955.225 1353.97 1076.56C1156.63 1197.9 1856.46 1445.39 1856.46 1445.39" stroke="#062123" stroke-width="0.552088" stroke-miterlimit="10"/>
<path d="M-135.557 252.422C-133.629 249.7 496.122 124.18 838.862 275.928C1181.6 427.675 1516.52 936.607 1336.24 1061.83C1155.98 1187.07 1853.49 1436.82 1853.49 1436.82" stroke="#062022" stroke-width="0.552088" stroke-miterlimit="10"/>
<path d="M-127.251 260.89C-124.932 257.624 477.135 115.748 824.823 266.763C1172.51 417.778 1481.72 917.986 1318.53 1047.11C1155.34 1176.24 1850.54 1428.25 1850.54 1428.25" stroke="#0B3134" stroke-width="0.552088" stroke-miterlimit="10"/>
<path d="M-118.962 269.36C-116.265 265.545 458.132 107.317 810.782 257.598C1163.43 407.885 1446.92 899.359 1300.8 1032.38C1154.68 1165.41 1847.57 1419.69 1847.57 1419.69" stroke="#092023" stroke-width="0.552088" stroke-miterlimit="10"/>
<path d="M-110.672 277.828C-107.584 273.47 439.13 98.8787 796.727 248.433C1154.32 397.987 1412.11 880.743 1283.06 1017.65C1154 1154.57 1844.59 1411.12 1844.59 1411.12" stroke="#0B2427" stroke-width="0.552088" stroke-miterlimit="10"/>
<path d="M-102.368 286.297C-98.888 281.395 420.142 90.4469 782.7 239.273C1145.26 388.099 1377.32 862.122 1265.34 1002.93C1153.36 1143.75 1841.62 1402.55 1841.62 1402.55" stroke="#112F34" stroke-width="0.552088" stroke-miterlimit="10"/>
<path d="M-94.0789 294.766C-90.2229 289.322 401.14 82.0095 768.647 230.103C1136.15 378.197 1342.51 843.496 1247.6 988.199C1152.69 1132.9 1838.64 1393.97 1838.64 1393.97" stroke="#0E2428" stroke-width="0.552088" stroke-miterlimit="10"/>
<path d="M-85.7729 303.233C-81.5255 297.245 382.154 73.576 754.621 220.941C1127.09 368.307 1307.73 824.883 1229.89 973.478C1152.04 1122.07 1835.69 1385.41 1835.69 1385.41" stroke="#1A3C45" stroke-width="0.552088" stroke-miterlimit="10"/>
<path d="M-77.4836 311.702C-72.8447 305.17 363.152 65.1383 740.579 211.782C1118.01 358.425 1272.93 806.261 1212.15 958.759C1151.38 1111.26 1832.72 1376.85 1832.72 1376.85" stroke="#295360" stroke-width="0.552088" stroke-miterlimit="10"/>
<path d="M-69.1941 320.171C-64.1775 313.091 344.148 56.707 726.526 202.612C1108.9 348.516 1238.11 787.635 1194.41 944.023C1150.72 1100.41 1829.74 1368.27 1829.74 1368.27" stroke="#25434F" stroke-width="0.552088" stroke-miterlimit="10"/>
<path d="M-60.8893 328.639C-55.4811 321.014 325.161 48.2736 712.5 193.45C1099.84 338.627 1203.32 769.018 1176.7 929.302C1150.07 1089.59 1826.78 1359.71 1826.78 1359.71" stroke="#253E4A" stroke-width="0.552088" stroke-miterlimit="10"/>
<path d="M-52.6 337.108C-46.8142 328.936 306.159 39.8366 698.444 184.287C1090.73 328.736 1168.52 750.397 1158.95 914.573C1149.39 1078.75 1823.8 1351.14 1823.8 1351.14" stroke="#243945" stroke-width="0.552088" stroke-miterlimit="10"/>
<path d="M-44.3105 345.577C-38.1351 336.866 287.156 31.4047 684.404 175.121C1081.65 318.842 1133.71 731.775 1141.22 899.848C1148.74 1067.92 1820.83 1342.57 1820.83 1342.57" stroke="#283B48" stroke-width="0.552088" stroke-miterlimit="10"/>
<path d="M-36.0047 354.044C-29.4378 344.79 268.171 22.9657 670.365 165.955C1072.56 308.944 1098.91 713.154 1123.5 885.117C1148.08 1057.09 1817.87 1334 1817.87 1334" stroke="#3F566B" stroke-width="0.552088" stroke-miterlimit="10"/>
<path d="M-27.7155 362.514C-20.7709 352.711 249.167 14.5347 656.323 156.796C1063.48 299.057 1064.12 694.538 1105.77 870.398C1147.41 1046.26 1814.9 1325.44 1814.9 1325.44" stroke="#4D617A" stroke-width="0.552088" stroke-miterlimit="10"/>
<path d="M-19.4241 370.978C-12.088 360.631 230.166 6.09771 642.285 147.625C1054.4 289.152 1029.32 675.911 1088.04 855.662C1146.76 1035.41 1811.93 1316.86 1811.93 1316.86" stroke="#48546A" stroke-width="0.552088" stroke-miterlimit="10"/>
<path d="M-11.1202 379.45C-3.39255 368.56 211.179 -2.33603 628.244 138.464C1045.31 279.265 994.515 657.294 1070.32 840.946C1146.13 1024.6 1808.98 1308.3 1808.98 1308.3" stroke="#596178" stroke-width="0.552088" stroke-miterlimit="10"/>
<path d="M-2.83084 387.92C5.27446 376.481 192.189 -10.7627 614.202 129.305C1036.22 269.373 959.725 638.678 1052.59 826.227C1145.46 1013.78 1806.01 1299.74 1806.01 1299.74" stroke="#646788" stroke-width="0.552088" stroke-miterlimit="10"/>
<path d="M-12.3077 372.64C-4.58012 361.75 202.634 8.61991 613.602 143.179C1024.57 277.745 964.417 624.11 1065.16 809.307C1165.91 994.504 1815.91 1297.45 1815.1 1296.76" stroke="#474962" stroke-width="0.552088" stroke-miterlimit="10"/>
<path d="M-21.7862 357.368C-14.4501 347.022 213.077 28.0104 612.999 157.068C1012.92 286.125 969.122 609.555 1077.73 792.401C1186.33 975.247 1825.82 1295.19 1824.19 1293.79" stroke="#565984" stroke-width="0.552088" stroke-miterlimit="10"/>
<path d="M-31.2641 342.095C-24.3195 332.292 223.521 47.3992 612.397 170.954C1001.29 294.514 973.827 594.997 1090.29 775.492C1206.76 955.987 1835.74 1292.93 1833.27 1290.82" stroke="#595C85" stroke-width="0.552088" stroke-miterlimit="10"/>
<path d="M-40.757 326.818C-34.1901 317.564 233.95 66.7849 611.793 184.842C989.639 302.893 978.515 580.443 1102.86 758.586C1227.2 936.728 1845.63 1290.65 1842.36 1287.85" stroke="#37395F" stroke-width="0.552088" stroke-miterlimit="10"/>
<path d="M-50.2346 311.544C-44.0592 302.834 244.392 86.1792 611.191 198.728C977.99 311.277 983.22 565.885 1115.42 741.683C1247.62 917.481 1855.55 1288.39 1851.45 1284.89" stroke="#272944" stroke-width="0.552088" stroke-miterlimit="10"/>
<path d="M-59.7106 296.265C-53.9247 288.092 254.838 105.562 610.592 212.603C966.347 319.643 987.929 551.316 1127.99 724.763C1268.05 898.209 1865.46 1286.11 1860.55 1281.91" stroke="#222343" stroke-width="0.552088" stroke-miterlimit="10"/>
<path d="M-69.1888 280.993C-63.7807 273.369 265.281 124.952 610.003 226.495C954.726 328.038 992.632 536.767 1140.57 707.861C1288.51 878.955 1875.39 1283.85 1869.65 1278.94" stroke="#27284E" stroke-width="0.552088" stroke-miterlimit="10"/>
<path d="M-78.6677 265.718C-73.651 258.638 275.724 144.34 609.4 240.381C943.062 336.417 997.336 522.208 1153.14 690.952C1308.94 859.695 1885.29 1281.57 1878.74 1275.97" stroke="#262852" stroke-width="0.552088" stroke-miterlimit="10"/>
<path d="M-88.1461 250.447C-83.5072 243.914 286.181 163.735 608.797 254.269C931.413 344.803 1002.04 507.653 1165.7 674.045C1329.36 840.438 1895.2 1279.31 1887.82 1273.01" stroke="#1C1D44" stroke-width="0.552088" stroke-miterlimit="10"/>
<path d="M-97.6379 235.17C-93.3905 229.182 296.611 183.121 608.181 268.153C919.766 353.183 1006.72 493.088 1178.25 657.134C1349.79 821.18 1905.1 1277.03 1896.9 1270.03" stroke="#1A1B41" stroke-width="0.552088" stroke-miterlimit="10"/>
<path d="M-107.114 219.889C-103.258 214.445 307.055 202.508 607.595 282.031C908.136 361.553 1011.44 478.528 1190.83 640.223C1370.23 801.918 1915.03 1274.77 1906 1267.06" stroke="#121334" stroke-width="0.552088" stroke-miterlimit="10"/>
<path d="M-116.593 204.618C-113.113 199.716 317.498 221.899 606.992 295.919C896.486 369.939 1016.14 463.973 1203.4 623.317C1390.66 782.661 1924.93 1272.5 1915.1 1264.1" stroke="#0B0C28" stroke-width="0.552088" stroke-miterlimit="10"/>
<path d="M-126.07 189.343C-122.982 184.985 327.942 241.287 606.39 309.805C884.838 378.322 1020.83 449.41 1215.97 606.408C1411.1 763.406 1934.84 1270.23 1924.19 1261.12" stroke="#0E0E2E" stroke-width="0.552088" stroke-miterlimit="10"/>
<path d="M-135.549 174.072C-132.852 170.257 338.386 260.678 605.787 323.693C873.189 386.708 1025.54 434.861 1228.53 589.502C1431.53 744.143 1944.75 1267.96 1933.28 1258.15" stroke="#0A0A2E" stroke-width="0.552088" stroke-miterlimit="10"/>
<path d="M-145.039 158.788C-142.72 155.522 348.817 280.057 605.186 337.574C861.556 395.086 1030.24 420.298 1241.11 572.593C1451.98 724.887 1954.67 1265.69 1942.38 1255.18" stroke="#060620" stroke-width="0.552088" stroke-miterlimit="10"/>
<path d="M-154.518 143.515C-152.59 140.793 359.26 299.446 604.585 351.455C849.909 403.465 1034.94 405.731 1253.68 555.685C1472.42 705.639 1964.58 1263.42 1951.47 1252.21" stroke="#060621" stroke-width="0.552088" stroke-miterlimit="10"/>
<path d="M-163.995 128.242C-162.445 126.068 369.702 318.84 603.983 365.342C838.261 411.849 1039.64 391.18 1266.24 538.777C1492.85 686.374 1974.49 1261.15 1960.56 1249.24" stroke="#05051F" stroke-width="0.552088" stroke-miterlimit="10"/>
<path d="M-173.474 112.968C-172.314 111.332 380.159 338.234 603.393 379.232C826.626 420.231 1044.36 376.627 1278.82 521.873C1513.29 667.119 1984.42 1258.89 1969.67 1246.28" stroke="#030423" stroke-width="0.552088" stroke-miterlimit="10"/>
<path d="M-182.953 97.6967C-182.184 96.6046 390.602 357.625 602.79 393.121C814.977 428.618 1049.06 362.072 1291.39 504.967C1533.71 647.862 1994.32 1256.62 1978.76 1243.31" stroke="#000011" stroke-width="0.552088" stroke-miterlimit="10"/>
<path d="M-192.429 82.4175C-192.037 81.8736 401.048 377.008 602.191 406.996C803.334 436.985 1053.75 347.504 1303.96 488.047C1554.16 628.59 2004.24 1254.34 1987.85 1240.33" stroke="#00000C" stroke-width="0.552088" stroke-miterlimit="10"/>
<path d="M-201.921 67.1397C-201.921 67.1397 411.478 396.392 601.574 420.878C791.685 445.369 1058.44 332.943 1316.51 471.135C1574.57 609.327 2014.13 1252.07 1996.92 1237.36" stroke="#000009" stroke-width="0.552088" stroke-miterlimit="10"/>
</g>
</svg>
