<svg width="465" height="747" viewBox="0 0 465 747" fill="none" xmlns="http://www.w3.org/2000/svg">
<g opacity="0.1">
<path d="M34.74 443.584L81.2779 462.438C99.4585 469.803 118.795 454.728 116.086 435.298L109.148 385.569C106.439 366.139 83.709 356.935 68.2385 368.995L28.6441 399.871C13.167 411.935 16.5594 436.22 34.74 443.584Z" stroke="url(#paint0_linear_28_15)" stroke-width="0.552088" stroke-miterlimit="10"/>
<path d="M28.176 449.197L88.6808 469.549C107.347 476.44 126.473 460.537 123.108 440.927L110.481 378.354C107.112 358.742 83.7786 350.132 68.4771 362.852L20.5981 405.079C5.29779 417.793 9.50483 442.305 28.176 449.197Z" stroke="url(#paint1_linear_28_15)" stroke-width="0.552088" stroke-miterlimit="10"/>
<path d="M21.613 454.805L96.0913 476.652C115.249 483.064 134.158 466.338 130.139 446.541L111.825 371.119C107.801 351.321 83.8594 343.305 68.7257 356.69L12.5686 410.262C-2.57709 423.65 2.45537 448.392 21.613 454.805Z" stroke="url(#paint2_linear_28_15)" stroke-width="0.552088" stroke-miterlimit="10"/>
<path d="M15.0435 460.416L103.489 483.762C123.131 489.701 141.835 472.147 137.15 452.168L113.147 363.901C108.468 343.922 83.9127 336.499 68.9533 350.545L4.51174 415.466C-10.4464 429.508 -4.59401 454.479 15.0435 460.416Z" stroke="url(#paint3_linear_28_15)" stroke-width="0.552088" stroke-miterlimit="10"/>
<path d="M8.48048 466.025L110.898 490.871C131.027 496.33 149.519 477.955 144.18 457.789L114.489 356.672C109.154 336.513 83.991 329.683 69.2006 344.39L-3.52013 420.662C-18.3213 435.366 -11.6489 460.566 8.48048 466.025Z" stroke="url(#paint4_linear_28_15)" stroke-width="0.552088" stroke-miterlimit="10"/>
<path d="M1.91651 471.638L118.302 497.977C138.917 502.962 157.198 483.759 151.204 463.412L115.825 349.446C109.83 329.099 84.0631 322.87 69.4363 338.236L-11.5691 425.857C-26.1905 441.224 -18.6981 466.653 1.91651 471.638Z" stroke="url(#paint5_linear_28_15)" stroke-width="0.552088" stroke-miterlimit="10"/>
<path d="M-4.50184 476.599L125.856 504.439C146.957 508.944 165.026 488.918 158.377 468.39L117.309 341.581C110.659 321.053 84.2837 315.417 69.827 331.438L-19.4628 430.408C-33.9141 446.43 -25.6083 472.092 -4.50184 476.599Z" stroke="url(#paint6_linear_28_15)" stroke-width="0.552088" stroke-miterlimit="10"/>
<path d="M-4.34606 479.213L128.705 503.288C150.242 507.184 167.925 486.308 160.529 465.703L114.856 338.439C107.459 317.835 80.5388 312.965 66.3924 329.672L-20.9853 432.861C-35.1251 449.564 -25.8835 475.317 -4.34606 479.213Z" stroke="url(#paint7_linear_28_15)" stroke-width="0.552088" stroke-miterlimit="10"/>
<path d="M-4.18535 481.83L131.564 502.142C153.538 505.428 170.835 483.696 162.691 463.02L112.407 335.3C104.269 314.626 76.7989 310.516 62.9639 327.904L-22.5004 435.307C-36.3354 452.694 -26.1645 478.542 -4.18535 481.83Z" stroke="url(#paint8_linear_28_15)" stroke-width="0.552088" stroke-miterlimit="10"/>
<path d="M-4.02982 484.445L134.413 500.992C156.823 503.669 173.734 481.086 164.849 460.335L109.958 332.166C101.073 311.415 73.058 308.071 59.5291 326.138L-24.0231 437.76C-37.5467 455.829 -26.4399 481.767 -4.02982 484.445Z" stroke="url(#paint9_linear_28_15)" stroke-width="0.552088" stroke-miterlimit="10"/>
<path d="M-3.87424 487.059L137.267 499.843C160.114 501.91 176.634 478.471 167.006 457.65L107.51 329.026C97.8767 308.204 69.3195 305.615 56.1008 324.369L-25.5391 440.209C-38.7578 458.963 -26.7195 484.986 -3.87424 487.059Z" stroke="url(#paint10_linear_28_15)" stroke-width="0.552088" stroke-miterlimit="10"/>
<path d="M-3.71322 489.674L140.121 498.693C163.404 500.151 179.538 475.861 169.163 454.963L105.062 325.886C94.6863 304.993 65.5799 303.164 52.6726 322.598L-27.0594 442.652C-39.9679 462.091 -27.0003 488.209 -3.71322 489.674Z" stroke="url(#paint11_linear_28_15)" stroke-width="0.552088" stroke-miterlimit="10"/>
<path d="M-3.55762 492.289L142.976 497.545C166.695 498.394 182.443 473.248 171.321 452.279L102.607 322.75C91.485 301.781 61.8336 300.719 49.2378 320.834L-28.582 445.106C-41.179 465.226 -27.2756 491.435 -3.55762 492.289Z" stroke="url(#paint12_linear_28_15)" stroke-width="0.552088" stroke-miterlimit="10"/>
<path d="M-2.44832 494.636L146.284 495.304C170.361 495.413 185.525 469.412 173.58 448.508L99.7889 319.37C87.8431 298.465 57.747 298.327 45.6142 319.128L-29.3281 447.603C-41.4532 468.395 -26.5257 494.528 -2.44832 494.636Z" stroke="url(#paint13_linear_28_15)" stroke-width="0.552088" stroke-miterlimit="10"/>
<path d="M-1.33398 496.985L149.598 493.06C174.035 492.423 188.613 465.578 175.85 444.734L96.9821 315.986C84.2141 295.141 53.6709 295.938 42.0034 317.415L-30.0668 450.092C-41.7277 471.565 -25.7695 497.617 -1.33398 496.985Z" stroke="url(#paint14_linear_28_15)" stroke-width="0.552088" stroke-miterlimit="10"/>
<path d="M-0.224339 499.333L152.913 490.815C177.703 489.437 191.703 461.739 178.117 440.959L94.1665 312.595C80.575 291.814 49.5913 293.542 38.388 315.7L-30.8035 452.575C-42.0015 474.734 -25.0138 500.712 -0.224339 499.333Z" stroke="url(#paint15_linear_28_15)" stroke-width="0.552088" stroke-miterlimit="10"/>
<path d="M0.884785 501.68L156.222 488.569C181.371 486.445 194.786 457.897 180.377 437.181L91.3545 309.209C76.9449 288.494 45.5111 291.145 34.7719 313.984L-31.542 455.062C-42.2759 477.903 -24.2628 503.798 0.884785 501.68Z" stroke="url(#paint16_linear_28_15)" stroke-width="0.552088" stroke-miterlimit="10"/>
<path d="M1.99391 504.028L159.53 486.329C185.032 483.464 197.869 454.062 182.636 433.411L88.5425 305.825C73.3094 285.174 41.4298 288.755 31.1613 312.271L-32.2751 457.553C-42.5514 481.078 -23.5076 506.894 1.99391 504.028Z" stroke="url(#paint17_linear_28_15)" stroke-width="0.552088" stroke-miterlimit="10"/>
<path d="M3.10328 506.377L162.845 484.085C188.706 480.474 200.957 450.228 184.907 429.638L85.7296 302.446C69.6742 281.854 37.3487 286.365 27.5432 310.568L-33.0212 460.051C-42.8255 484.248 -22.7522 509.989 3.10328 506.377Z" stroke="url(#paint18_linear_28_15)" stroke-width="0.552088" stroke-miterlimit="10"/>
<path d="M5.24558 508.96L166.495 481.275C192.597 476.79 204.062 445.735 187.129 425.371L82.5257 299.572C65.5932 279.208 32.9611 284.81 23.7917 309.659L-32.8553 463.148C-42.0277 487.985 -20.8605 513.438 5.24558 508.96Z" stroke="url(#paint19_linear_28_15)" stroke-width="0.552088" stroke-miterlimit="10"/>
<path d="M7.38315 511.543L170.136 478.458C196.484 473.1 207.153 441.232 189.344 421.091L79.3195 296.686C61.5059 276.544 28.5725 283.238 20.0379 308.738L-32.6905 466.228C-41.2292 491.721 -18.9639 516.895 7.38315 511.543Z" stroke="url(#paint20_linear_28_15)" stroke-width="0.552088" stroke-miterlimit="10"/>
<path d="M9.52556 514.127L173.786 475.648C200.381 469.418 210.258 436.74 191.567 416.825L76.1116 293.806C57.4209 273.891 24.1809 281.677 16.2823 307.823L-32.5286 469.319C-40.426 495.46 -17.0679 520.352 9.52556 514.127Z" stroke="url(#paint21_linear_28_15)" stroke-width="0.552088" stroke-miterlimit="10"/>
<path d="M11.6677 516.712L177.436 472.84C204.272 465.736 213.357 432.247 193.789 412.56L72.9075 290.934C53.3397 271.247 19.7931 280.124 12.5253 306.914L-32.3671 472.411C-39.6295 499.203 -15.168 523.816 11.6677 516.712Z" stroke="url(#paint22_linear_28_15)" stroke-width="0.552088" stroke-miterlimit="10"/>
<path d="M13.8048 519.296L181.082 470.03C208.164 462.054 216.451 427.758 196.007 408.293L69.6985 288.06C49.2495 268.595 15.4016 278.563 8.76864 306.005L-32.2063 475.509C-38.8315 502.941 -13.2719 527.274 13.8048 519.296Z" stroke="url(#paint23_linear_28_15)" stroke-width="0.552088" stroke-miterlimit="10"/>
<path d="M16.8091 522.074L185.595 467.41C212.918 458.559 220.419 423.453 199.093 404.215L67.3579 285.375C46.0318 266.137 11.8773 277.197 5.88035 305.286L-31.176 478.789C-37.1717 506.872 -10.5193 530.923 16.8091 522.074Z" stroke="url(#paint24_linear_28_15)" stroke-width="0.552088" stroke-miterlimit="10"/>
<path d="M20.2227 525.021L190.023 464.01C217.353 454.216 223.835 418.508 201.686 399.737L63.9481 283.195C41.7991 264.424 7.64015 276.666 2.45325 305.229L-29.6091 482.782C-34.7918 511.353 -7.10786 534.815 20.2227 525.021Z" stroke="url(#paint25_linear_28_15)" stroke-width="0.552088" stroke-miterlimit="10"/>
<path d="M23.6398 527.977L194.449 460.617C221.787 449.88 227.248 413.576 204.282 395.267L60.543 281.019C37.5763 262.715 3.40227 276.136 -0.96385 305.178L-28.0334 486.785C-32.4061 515.831 -3.69837 538.714 23.6398 527.977Z" stroke="url(#paint26_linear_28_15)" stroke-width="0.552088" stroke-miterlimit="10"/>
<path d="M27.0584 530.927L198.883 457.215C226.228 445.535 230.67 408.629 206.88 390.791L57.1327 278.841C33.3431 261.004 -0.835299 275.606 -4.39261 305.129L-26.4681 490.786C-30.0254 520.308 -0.287325 542.607 27.0584 530.927Z" stroke="url(#paint27_linear_28_15)" stroke-width="0.552088" stroke-miterlimit="10"/>
<path d="M30.4716 533.874L203.305 453.813C230.654 441.184 234.079 403.688 209.473 386.313L53.7226 276.662C29.11 259.291 -5.07821 275.073 -7.81473 305.074L-24.8974 494.785C-27.6393 524.785 3.12249 546.504 30.4716 533.874Z" stroke="url(#paint28_linear_28_15)" stroke-width="0.552088" stroke-miterlimit="10"/>
<path d="M33.889 536.829L207.738 450.416C235.094 436.843 237.5 398.746 212.07 381.842L50.3111 274.489C24.881 257.585 -9.31693 274.548 -11.2434 305.024L-23.3321 498.785C-25.2545 529.268 6.53355 550.396 33.889 536.829Z" stroke="url(#paint29_linear_28_15)" stroke-width="0.552088" stroke-miterlimit="10"/>
<path d="M37.3077 539.778L212.165 447.017C239.529 432.501 240.915 393.807 214.663 377.364L46.901 272.31C20.6479 255.873 -13.5544 274.017 -14.6655 304.97L-21.7668 502.784C-22.8737 533.744 9.94344 554.294 37.3077 539.778Z" stroke="url(#paint30_linear_28_15)" stroke-width="0.552088" stroke-miterlimit="10"/>
<path d="M41.4923 543.551L217.655 442.511C244.527 427.24 244.796 388.601 218.132 372.966L42.5442 270.923C15.8807 255.282 -17.7076 274.372 -17.921 305.283L-18.4967 508.367C-18.7088 539.272 14.6154 558.821 41.4923 543.551Z" stroke="url(#paint31_linear_28_15)" stroke-width="0.552088" stroke-miterlimit="10"/>
<path d="M45.6782 547.318L223.148 437.993C249.532 421.968 248.674 383.388 221.604 368.55L38.1912 269.518C11.1216 254.68 -21.8635 274.715 -21.1726 305.579L-15.2294 513.936C-14.5492 544.798 19.2887 563.342 45.6782 547.318Z" stroke="url(#paint32_linear_28_15)" stroke-width="0.552088" stroke-miterlimit="10"/>
<path d="M49.858 551.087L228.634 433.478C254.531 416.699 252.545 378.178 225.07 364.143L33.8308 268.122C6.34968 254.085 -26.0202 275.061 -24.4357 305.877L-11.9735 519.507C-10.3837 550.324 23.9667 567.868 49.858 551.087Z" stroke="url(#paint33_linear_28_15)" stroke-width="0.552088" stroke-miterlimit="10"/>
<path d="M54.0424 554.86L234.126 428.967C259.53 411.432 256.428 372.967 228.535 359.732L29.4709 266.722C1.58358 253.488 -30.1777 275.41 -27.6943 306.178L-8.71311 525.081C-6.22437 555.851 28.6385 572.395 54.0424 554.86Z" stroke="url(#paint34_linear_28_15)" stroke-width="0.552088" stroke-miterlimit="10"/>
<path d="M58.2274 558.632L239.616 424.46C264.533 406.171 260.303 367.764 232.005 355.333L25.1103 265.327C-3.18857 252.895 -34.3346 275.758 -30.9535 306.484L-5.45334 530.661C-2.0603 561.384 33.3108 576.921 58.2274 558.632Z" stroke="url(#paint35_linear_28_15)" stroke-width="0.552088" stroke-miterlimit="10"/>
<path d="M62.4136 562.398L245.109 419.942C269.534 400.892 264.183 362.545 235.478 350.916L20.7576 263.921C-7.95279 252.292 -38.4848 276.101 -34.2048 306.779L-2.1857 536.229C2.09966 566.909 37.9886 581.448 62.4136 562.398Z" stroke="url(#paint36_linear_28_15)" stroke-width="0.552088" stroke-miterlimit="10"/>
<path d="M67.4464 566.501L249.7 414.525C273.514 394.818 267.065 356.723 238.094 345.952L15.3534 264.102C-13.6171 253.331 -43.3882 277.961 -38.2264 308.441L2.26118 542.266C7.41878 572.739 43.6335 586.202 67.4464 566.501Z" stroke="url(#paint37_linear_28_15)" stroke-width="0.552088" stroke-miterlimit="10"/>
<path d="M72.4859 570.6L254.297 409.106C277.5 388.741 269.954 350.899 240.716 340.989L9.95471 264.285C-19.2825 254.376 -48.2819 279.83 -42.2478 310.103L6.70279 548.302C12.7368 578.576 49.2827 590.965 72.4859 570.6Z" stroke="url(#paint38_linear_28_15)" stroke-width="0.552088" stroke-miterlimit="10"/>
<path d="M77.5199 574.698L258.889 403.684C281.476 382.661 272.837 345.072 243.334 336.02L4.54764 264.455C-24.9497 255.404 -53.1893 281.684 -46.2735 311.759L11.1443 554.338C18.056 584.406 54.933 595.721 77.5199 574.698Z" stroke="url(#paint39_linear_28_15)" stroke-width="0.552088" stroke-miterlimit="10"/>
<path d="M82.554 578.796L263.481 398.263C285.457 376.583 275.721 339.245 245.952 331.05L-0.855301 264.631C-30.6194 256.442 -58.0861 283.54 -50.2993 313.414L15.5817 560.367C23.3739 590.242 60.578 600.476 82.554 578.796Z" stroke="url(#paint40_linear_28_15)" stroke-width="0.552088" stroke-miterlimit="10"/>
<path d="M87.587 582.899L268.072 392.847C289.431 370.508 278.599 333.417 248.574 326.093L-6.2538 264.813C-36.2834 257.482 -62.985 285.408 -54.3151 315.078L20.0289 566.404C28.6921 596.078 66.2273 605.238 87.587 582.899Z" stroke="url(#paint41_linear_28_15)" stroke-width="0.552088" stroke-miterlimit="10"/>
<path d="M92.3341 588.303L272.375 388.737C293.125 365.735 281.194 328.902 250.903 322.435L-11.9503 266.299C-42.2412 259.832 -68.1765 288.58 -58.6356 318.049L24.1768 573.75C33.7189 603.213 71.5852 611.299 92.3341 588.303Z" stroke="url(#paint42_linear_28_15)" stroke-width="0.552088" stroke-miterlimit="10"/>
<path d="M98.0952 593.044L275.514 383.007C295.543 359.465 282.58 323.068 252.175 317.491L-18.4369 268.863C-48.837 263.287 -73.877 292.711 -63.505 321.829L29.6861 580.5C40.0647 609.613 78.0671 616.586 98.0952 593.044Z" stroke="url(#paint43_linear_28_15)" stroke-width="0.552088" stroke-miterlimit="10"/>
<path d="M103.862 597.786L278.659 377.278C297.971 353.197 283.972 317.235 253.457 312.551L-24.9112 271.424C-55.4261 266.739 -79.5666 296.846 -68.3634 325.612L35.2076 587.247C46.4108 616.013 84.5504 621.868 103.862 597.786Z" stroke="url(#paint44_linear_28_15)" stroke-width="0.552088" stroke-miterlimit="10"/>
<path d="M109.629 602.529L281.804 371.55C300.4 346.923 285.363 311.402 254.738 307.615L-31.3881 273.996C-62.0123 270.203 -85.2521 300.986 -73.2243 329.406L40.7211 594.003C52.7555 622.418 91.0322 627.156 109.629 602.529Z" stroke="url(#paint45_linear_28_15)" stroke-width="0.552088" stroke-miterlimit="10"/>
<path d="M115.389 607.27L284.942 365.82C302.817 340.652 286.748 305.569 256.014 302.673L-37.8697 276.561C-68.6043 273.666 -90.9488 305.125 -78.0887 333.187L46.2354 600.754C59.0956 628.817 97.5149 632.438 115.389 607.27Z" stroke="url(#paint46_linear_28_15)" stroke-width="0.552088" stroke-miterlimit="10"/>
<path d="M121.156 612.013L288.092 360.093C305.252 334.38 288.139 299.741 257.296 297.733L-44.3438 279.122C-75.1878 277.119 -96.6369 309.254 -82.9469 336.97L51.7571 607.502C65.4418 635.217 103.998 637.72 121.156 612.013Z" stroke="url(#paint47_linear_28_15)" stroke-width="0.552088" stroke-miterlimit="10"/>
<path d="M126.922 616.756L291.237 354.364C307.674 328.111 289.53 293.909 258.577 292.797L-50.82 281.688C-81.7732 280.577 -102.323 313.394 -87.8071 340.759L57.2768 614.254C71.7872 641.617 110.48 643.008 126.922 616.756Z" stroke="url(#paint48_linear_28_15)" stroke-width="0.552088" stroke-miterlimit="10"/>
<path d="M133.392 621.747L292.504 348.328C308.145 321.665 289.054 288.077 258.143 287.863L-58.2004 286.779C-89.1114 286.566 -108.656 319.897 -93.3847 346.768L63.8457 621.276C79.1169 648.147 117.756 648.411 133.392 621.747Z" stroke="url(#paint49_linear_28_15)" stroke-width="0.552088" stroke-miterlimit="10"/>
<path d="M139.86 626.742L293.77 342.297C308.608 315.228 288.573 282.242 257.708 282.933L-65.5852 291.863C-96.4486 292.548 -114.992 326.386 -98.968 352.776L70.4158 628.291C86.4477 654.671 125.027 653.813 139.86 626.742Z" stroke="url(#paint50_linear_28_15)" stroke-width="0.552088" stroke-miterlimit="10"/>
<path d="M146.333 631.739L295.046 336.269C309.082 308.788 288.107 276.418 257.291 278.003L-72.954 296.951C-103.77 298.536 -121.314 332.886 -104.534 358.783L76.9964 635.31C93.777 661.201 132.297 659.221 146.333 631.739Z" stroke="url(#paint51_linear_28_15)" stroke-width="0.552088" stroke-miterlimit="10"/>
<path d="M152.802 636.73L296.314 330.228C309.548 302.341 287.626 270.579 256.858 273.063L-80.3364 302.024C-111.105 304.508 -127.649 339.37 -110.114 364.774L83.5646 642.308C101.108 667.725 139.568 664.622 152.802 636.73Z" stroke="url(#paint52_linear_28_15)" stroke-width="0.552088" stroke-miterlimit="10"/>
<path d="M159.27 641.725L297.581 324.197C310.012 295.898 287.15 264.752 256.424 268.133L-87.7167 307.115C-118.443 310.496 -133.981 345.872 -115.693 370.789L90.1378 649.336C108.438 674.255 146.839 670.024 159.27 641.725Z" stroke="url(#paint53_linear_28_15)" stroke-width="0.552088" stroke-miterlimit="10"/>
<path d="M165.744 646.723L298.857 318.169C310.487 289.459 286.678 258.927 255.999 263.207L-95.0921 312.207C-125.77 316.487 -140.31 352.376 -121.26 376.801L96.7184 656.355C115.761 680.784 154.114 675.433 165.744 646.723Z" stroke="url(#paint54_linear_28_15)" stroke-width="0.552088" stroke-miterlimit="10"/>
<path d="M173.007 650.467L297.992 310.842C308.763 281.872 284.133 252.101 253.653 257.263L-102.958 318.831C-133.431 323.989 -146.894 360.204 -127.193 384.017L104.435 662.067C124.14 685.887 162.235 679.437 173.007 650.467Z" stroke="url(#paint55_linear_28_15)" stroke-width="0.552088" stroke-miterlimit="10"/>
<path d="M180.276 654.21L297.132 303.515C307.041 274.278 281.588 245.278 251.314 251.312L-110.824 325.459C-141.098 331.493 -153.487 368.039 -133.122 391.242L112.16 667.791C132.52 690.987 170.361 683.446 180.276 654.21Z" stroke="url(#paint56_linear_28_15)" stroke-width="0.552088" stroke-miterlimit="10"/>
<path d="M187.54 657.947L296.274 296.182C305.325 266.685 279.045 238.445 248.97 245.361L-118.695 332.08C-148.768 338.991 -160.078 375.869 -139.055 398.456L119.876 673.502C140.899 696.089 178.488 687.45 187.54 657.947Z" stroke="url(#paint57_linear_28_15)" stroke-width="0.552088" stroke-miterlimit="10"/>
<path d="M194.81 661.691L295.414 288.855C303.603 259.091 276.505 231.624 246.63 239.411L-126.554 338.704C-156.423 346.492 -166.664 383.701 -144.982 405.671L127.598 679.214C149.277 701.196 186.616 691.454 194.81 661.691Z" stroke="url(#paint58_linear_28_15)" stroke-width="0.552088" stroke-miterlimit="10"/>
<path d="M202.073 665.435L294.549 281.528C301.88 251.498 273.955 224.797 244.285 233.467L-134.426 345.332C-164.095 353.997 -173.26 391.531 -150.917 412.897L135.312 684.937C157.656 706.298 194.741 695.464 202.073 665.435Z" stroke="url(#paint59_linear_28_15)" stroke-width="0.552088" stroke-miterlimit="10"/>
<path d="M207.376 668.738L291.729 273.761C298.196 243.471 269.448 217.535 239.979 227.076L-144.253 351.516C-173.722 361.057 -181.807 398.923 -158.811 419.672L141.073 690.21C164.074 710.96 200.908 699.029 207.376 668.738Z" stroke="url(#paint60_linear_28_15)" stroke-width="0.552088" stroke-miterlimit="10"/>
<path d="M214.567 670.553L287.601 265.086C293.176 234.686 263.753 209.646 234.635 220.018L-153.023 359.503C-182.141 369.875 -189.109 407.879 -165.573 427.911L149.051 693.892C172.594 713.921 208.991 700.953 214.567 670.553Z" stroke="url(#paint61_linear_28_15)" stroke-width="0.552088" stroke-miterlimit="10"/>
<path d="M221.759 672.368L283.474 256.411C288.158 225.896 258.052 201.756 229.285 212.959L-161.799 367.49C-190.566 378.693 -196.421 416.833 -172.334 436.146L157.037 697.571C181.118 716.883 217.081 702.879 221.759 672.368Z" stroke="url(#paint62_linear_28_15)" stroke-width="0.552088" stroke-miterlimit="10"/>
<path d="M228.951 674.182L279.344 247.741C283.137 217.117 252.354 193.877 223.935 205.905L-170.571 375.483C-198.985 387.512 -203.724 425.794 -179.096 444.385L165.022 701.249C189.643 719.844 225.163 704.807 228.951 674.182Z" stroke="url(#paint63_linear_28_15)" stroke-width="0.552088" stroke-miterlimit="10"/>
<path d="M236.143 675.996L275.212 239.064C278.107 208.329 246.648 185.985 218.585 198.845L-179.348 383.474C-207.411 396.334 -211.036 434.747 -185.864 452.628L172.995 704.93C198.169 722.8 233.247 706.731 236.143 675.996Z" stroke="url(#paint64_linear_28_15)" stroke-width="0.552088" stroke-miterlimit="10"/>
<path d="M243.334 677.811L271.084 230.388C273.087 199.544 240.952 178.095 213.236 191.785L-188.119 391.462C-215.834 405.146 -218.337 443.703 -192.625 460.862L180.98 708.608C206.688 725.761 241.331 708.655 243.334 677.811Z" stroke="url(#paint65_linear_28_15)" stroke-width="0.552088" stroke-miterlimit="10"/>
<path d="M250.526 679.624L266.957 221.712C268.068 190.759 235.25 170.209 207.886 184.725L-196.896 399.452C-224.26 413.968 -225.645 452.662 -199.393 469.105L188.959 712.29C215.213 728.722 249.415 710.578 250.526 679.624Z" stroke="url(#paint66_linear_28_15)" stroke-width="0.552088" stroke-miterlimit="10"/>
<path d="M257.688 679.022L259.451 211.929C259.664 181.018 226.333 161.474 199.462 176.745L-205.935 408.766C-232.806 424.037 -233.076 462.675 -206.411 478.311L197.223 713.383C223.881 729.023 257.475 709.933 257.688 679.022Z" stroke="url(#paint67_linear_28_15)" stroke-width="0.552088" stroke-miterlimit="10"/>
<path d="M264.843 678.425L251.932 202.15C251.247 171.287 217.409 152.744 191.019 168.768L-214.993 418.088C-241.377 434.113 -240.519 472.692 -213.449 487.53L205.474 714.485C232.55 729.319 265.529 709.289 264.843 678.425Z" stroke="url(#paint68_linear_28_15)" stroke-width="0.552088" stroke-miterlimit="10"/>
<path d="M272.005 677.822L244.427 192.367C242.842 161.551 208.492 144.007 182.595 160.787L-224.032 427.401C-249.929 444.18 -247.943 482.701 -220.467 496.736L213.739 715.578C241.22 729.614 273.59 708.638 272.005 677.822Z" stroke="url(#paint69_linear_28_15)" stroke-width="0.552088" stroke-miterlimit="10"/>
<path d="M279.16 677.223L236.908 182.586C234.425 151.818 199.562 135.274 174.158 152.809L-233.084 436.716C-258.488 454.251 -255.386 492.716 -227.493 505.951L222.002 716.676C249.888 729.914 281.649 707.993 279.16 677.223Z" stroke="url(#paint70_linear_28_15)" stroke-width="0.552088" stroke-miterlimit="10"/>
<path d="M286.322 676.622L229.402 172.804C226.021 142.078 190.644 126.539 165.728 144.828L-242.13 446.035C-267.046 464.324 -262.817 502.73 -234.518 515.162L230.259 717.773C258.557 730.21 289.703 707.348 286.322 676.622Z" stroke="url(#paint71_linear_28_15)" stroke-width="0.552088" stroke-miterlimit="10"/>
<path d="M293.483 676.024L221.889 163.03C217.609 132.351 181.72 117.812 157.295 136.862L-251.177 455.362C-275.602 474.411 -270.251 512.758 -241.546 524.387L238.52 718.881C267.231 730.511 297.763 706.702 293.483 676.024Z" stroke="url(#paint72_linear_28_15)" stroke-width="0.552088" stroke-miterlimit="10"/>
<path d="M301.991 672.769L212.356 152.719C207.199 122.246 170.984 108.782 147.171 128.484L-258.389 466.137C-282.203 485.844 -275.754 523.939 -246.783 534.71L248.411 717.108C277.381 727.88 307.148 703.243 301.991 672.769Z" stroke="url(#paint73_linear_28_15)" stroke-width="0.552088" stroke-miterlimit="10"/>
<path d="M310.499 669.517L202.823 142.416C196.789 112.142 160.243 99.7529 137.039 120.117L-265.607 476.918C-288.81 497.282 -281.263 535.125 -252.026 545.034L258.296 715.335C287.532 725.249 316.538 699.791 310.499 669.517Z" stroke="url(#paint74_linear_28_15)" stroke-width="0.552088" stroke-miterlimit="10"/>
<path d="M319.012 666.264L193.295 132.112C186.384 102.038 149.506 90.7288 126.919 111.752L-272.814 487.699C-295.401 508.722 -286.762 546.312 -257.259 555.364L268.191 713.568C297.688 722.619 325.923 696.338 319.012 666.264Z" stroke="url(#paint75_linear_28_15)" stroke-width="0.552088" stroke-miterlimit="10"/>
<path d="M327.52 663.009L183.761 121.807C175.973 91.9379 138.765 81.6974 116.794 103.379L-280.026 498.479C-302.002 520.16 -292.266 557.497 -262.498 565.692L278.075 711.798C307.845 719.988 335.313 692.884 327.52 663.009Z" stroke="url(#paint76_linear_28_15)" stroke-width="0.552088" stroke-miterlimit="10"/>
<path d="M336.034 659.756L174.234 111.497C165.57 81.8281 128.036 72.6631 106.669 95.0061L-287.237 509.254C-308.597 531.593 -297.765 568.684 -267.739 576.009L287.963 710.013C317.997 717.351 344.698 689.425 336.034 659.756Z" stroke="url(#paint77_linear_28_15)" stroke-width="0.552088" stroke-miterlimit="10"/>
<path d="M345.176 653.674L165.334 98.3638C155.793 68.8947 117.927 60.8095 97.1783 83.8056L-293.816 517.207C-314.565 540.203 -302.635 577.041 -272.344 583.509L298.486 705.417C328.786 711.892 354.722 683.144 345.176 653.674Z" stroke="url(#paint78_linear_28_15)" stroke-width="0.552088" stroke-miterlimit="10"/>
</g>
<defs>
<linearGradient id="paint0_linear_28_15" x1="129.525" y1="369.873" x2="8.13353" y2="438.145" gradientUnits="userSpaceOnUse">
<stop stop-color="#8DA4AB"/>
<stop offset="0.2294" stop-color="#4C7789"/>
<stop offset="0.711" stop-color="#22465F"/>
<stop offset="1" stop-color="#041727"/>
</linearGradient>
<linearGradient id="paint1_linear_28_15" x1="138.896" y1="364.585" x2="1.87228" y2="443.523" gradientUnits="userSpaceOnUse">
<stop stop-color="#8DA4AB"/>
<stop offset="0.2294" stop-color="#4C7789"/>
<stop offset="0.711" stop-color="#22465F"/>
<stop offset="1" stop-color="#041727"/>
</linearGradient>
<linearGradient id="paint2_linear_28_15" x1="148.306" y1="359.252" x2="-4.37681" y2="448.865" gradientUnits="userSpaceOnUse">
<stop stop-color="#8DA4AB"/>
<stop offset="0.2294" stop-color="#4C7789"/>
<stop offset="0.711" stop-color="#22465F"/>
<stop offset="1" stop-color="#041727"/>
</linearGradient>
<linearGradient id="paint3_linear_28_15" x1="157.726" y1="353.922" x2="-10.6263" y2="454.221" gradientUnits="userSpaceOnUse">
<stop stop-color="#8DA4AB"/>
<stop offset="0.2294" stop-color="#4C7789"/>
<stop offset="0.711" stop-color="#22465F"/>
<stop offset="1" stop-color="#041727"/>
</linearGradient>
<linearGradient id="paint4_linear_28_15" x1="167.187" y1="348.559" x2="-16.879" y2="459.566" gradientUnits="userSpaceOnUse">
<stop stop-color="#8DA4AB"/>
<stop offset="0.2294" stop-color="#4C7789"/>
<stop offset="0.711" stop-color="#22465F"/>
<stop offset="1" stop-color="#041727"/>
</linearGradient>
<linearGradient id="paint5_linear_28_15" x1="176.665" y1="343.179" x2="-23.1457" y2="464.91" gradientUnits="userSpaceOnUse">
<stop stop-color="#8DA4AB"/>
<stop offset="0.2294" stop-color="#4C7789"/>
<stop offset="0.711" stop-color="#22465F"/>
<stop offset="1" stop-color="#041727"/>
</linearGradient>
<linearGradient id="paint6_linear_28_15" x1="186.325" y1="337.101" x2="-30.5821" y2="469.237" gradientUnits="userSpaceOnUse">
<stop stop-color="#8DA4AB"/>
<stop offset="0.2294" stop-color="#4C7789"/>
<stop offset="0.711" stop-color="#22465F"/>
<stop offset="1" stop-color="#041727"/>
</linearGradient>
<linearGradient id="paint7_linear_28_15" x1="188.701" y1="335.465" x2="-33.2951" y2="468.858" gradientUnits="userSpaceOnUse">
<stop stop-color="#8DA4AB"/>
<stop offset="0.2294" stop-color="#4C7789"/>
<stop offset="0.711" stop-color="#22465F"/>
<stop offset="1" stop-color="#041727"/>
</linearGradient>
<linearGradient id="paint8_linear_28_15" x1="191.117" y1="333.811" x2="-36.0043" y2="468.487" gradientUnits="userSpaceOnUse">
<stop stop-color="#8DA4AB"/>
<stop offset="0.2294" stop-color="#4C7789"/>
<stop offset="0.711" stop-color="#22465F"/>
<stop offset="1" stop-color="#041727"/>
</linearGradient>
<linearGradient id="paint9_linear_28_15" x1="193.554" y1="332.135" x2="-38.7223" y2="468.106" gradientUnits="userSpaceOnUse">
<stop stop-color="#8DA4AB"/>
<stop offset="0.2294" stop-color="#4C7789"/>
<stop offset="0.711" stop-color="#22465F"/>
<stop offset="1" stop-color="#041727"/>
</linearGradient>
<linearGradient id="paint10_linear_28_15" x1="196.022" y1="330.433" x2="-41.4454" y2="467.715" gradientUnits="userSpaceOnUse">
<stop stop-color="#8DA4AB"/>
<stop offset="0.2294" stop-color="#4C7789"/>
<stop offset="0.711" stop-color="#22465F"/>
<stop offset="1" stop-color="#041727"/>
</linearGradient>
<linearGradient id="paint11_linear_28_15" x1="198.518" y1="328.712" x2="-44.1703" y2="467.327" gradientUnits="userSpaceOnUse">
<stop stop-color="#8DA4AB"/>
<stop offset="0.2294" stop-color="#4C7789"/>
<stop offset="0.711" stop-color="#22465F"/>
<stop offset="1" stop-color="#041727"/>
</linearGradient>
<linearGradient id="paint12_linear_28_15" x1="201.04" y1="326.977" x2="-46.8959" y2="466.943" gradientUnits="userSpaceOnUse">
<stop stop-color="#8DA4AB"/>
<stop offset="0.2294" stop-color="#4C7789"/>
<stop offset="0.711" stop-color="#22465F"/>
<stop offset="1" stop-color="#041727"/>
</linearGradient>
<linearGradient id="paint13_linear_28_15" x1="203.559" y1="325.235" x2="-48.9654" y2="465.847" gradientUnits="userSpaceOnUse">
<stop stop-color="#8DA4AB"/>
<stop offset="0.2294" stop-color="#4C7789"/>
<stop offset="0.711" stop-color="#22465F"/>
<stop offset="1" stop-color="#041727"/>
</linearGradient>
<linearGradient id="paint14_linear_28_15" x1="206.121" y1="323.464" x2="-51.0359" y2="464.747" gradientUnits="userSpaceOnUse">
<stop stop-color="#8DA4AB"/>
<stop offset="0.2294" stop-color="#4C7789"/>
<stop offset="0.711" stop-color="#22465F"/>
<stop offset="1" stop-color="#041727"/>
</linearGradient>
<linearGradient id="paint15_linear_28_15" x1="208.714" y1="321.665" x2="-53.1131" y2="463.64" gradientUnits="userSpaceOnUse">
<stop stop-color="#8DA4AB"/>
<stop offset="0.2294" stop-color="#4C7789"/>
<stop offset="0.711" stop-color="#22465F"/>
<stop offset="1" stop-color="#041727"/>
</linearGradient>
<linearGradient id="paint16_linear_28_15" x1="211.334" y1="319.845" x2="-55.1914" y2="462.534" gradientUnits="userSpaceOnUse">
<stop stop-color="#8DA4AB"/>
<stop offset="0.2294" stop-color="#4C7789"/>
<stop offset="0.711" stop-color="#22465F"/>
<stop offset="1" stop-color="#041727"/>
</linearGradient>
<linearGradient id="paint17_linear_28_15" x1="213.983" y1="318.006" x2="-57.2712" y2="461.426" gradientUnits="userSpaceOnUse">
<stop stop-color="#8DA4AB"/>
<stop offset="0.2294" stop-color="#4C7789"/>
<stop offset="0.711" stop-color="#22465F"/>
<stop offset="1" stop-color="#041727"/>
</linearGradient>
<linearGradient id="paint18_linear_28_15" x1="216.668" y1="316.15" x2="-59.3498" y2="460.343" gradientUnits="userSpaceOnUse">
<stop stop-color="#8DA4AB"/>
<stop offset="0.2294" stop-color="#4C7789"/>
<stop offset="0.711" stop-color="#22465F"/>
<stop offset="1" stop-color="#041727"/>
</linearGradient>
<linearGradient id="paint19_linear_28_15" x1="219.202" y1="314.997" x2="-60.6128" y2="459.103" gradientUnits="userSpaceOnUse">
<stop stop-color="#8DA4AB"/>
<stop offset="0.2294" stop-color="#4C7789"/>
<stop offset="0.711" stop-color="#22465F"/>
<stop offset="1" stop-color="#041727"/>
</linearGradient>
<linearGradient id="paint20_linear_28_15" x1="221.767" y1="313.801" x2="-61.8945" y2="457.84" gradientUnits="userSpaceOnUse">
<stop stop-color="#8DA4AB"/>
<stop offset="0.2294" stop-color="#4C7789"/>
<stop offset="0.711" stop-color="#22465F"/>
<stop offset="1" stop-color="#041727"/>
</linearGradient>
<linearGradient id="paint21_linear_28_15" x1="224.38" y1="312.59" x2="-63.1658" y2="456.612" gradientUnits="userSpaceOnUse">
<stop stop-color="#8DA4AB"/>
<stop offset="0.2294" stop-color="#4C7789"/>
<stop offset="0.711" stop-color="#22465F"/>
<stop offset="1" stop-color="#041727"/>
</linearGradient>
<linearGradient id="paint22_linear_28_15" x1="227.022" y1="311.362" x2="-64.4404" y2="455.396" gradientUnits="userSpaceOnUse">
<stop stop-color="#8DA4AB"/>
<stop offset="0.2294" stop-color="#4C7789"/>
<stop offset="0.711" stop-color="#22465F"/>
<stop offset="1" stop-color="#041727"/>
</linearGradient>
<linearGradient id="paint23_linear_28_15" x1="229.695" y1="310.105" x2="-65.7172" y2="454.179" gradientUnits="userSpaceOnUse">
<stop stop-color="#8DA4AB"/>
<stop offset="0.2294" stop-color="#4C7789"/>
<stop offset="0.711" stop-color="#22465F"/>
<stop offset="1" stop-color="#041727"/>
</linearGradient>
<linearGradient id="paint24_linear_28_15" x1="233.219" y1="309.008" x2="-67.0519" y2="454.966" gradientUnits="userSpaceOnUse">
<stop stop-color="#8DA4AB"/>
<stop offset="0.2294" stop-color="#4C7789"/>
<stop offset="0.711" stop-color="#22465F"/>
<stop offset="1" stop-color="#041727"/>
</linearGradient>
<linearGradient id="paint25_linear_28_15" x1="235.983" y1="308.602" x2="-70.0278" y2="459.594" gradientUnits="userSpaceOnUse">
<stop stop-color="#8DA4AB"/>
<stop offset="0.2294" stop-color="#4C7789"/>
<stop offset="0.711" stop-color="#22465F"/>
<stop offset="1" stop-color="#041727"/>
</linearGradient>
<linearGradient id="paint26_linear_28_15" x1="238.789" y1="308.17" x2="-73.0023" y2="464.224" gradientUnits="userSpaceOnUse">
<stop stop-color="#8DA4AB"/>
<stop offset="0.2294" stop-color="#4C7789"/>
<stop offset="0.711" stop-color="#22465F"/>
<stop offset="1" stop-color="#041727"/>
</linearGradient>
<linearGradient id="paint27_linear_28_15" x1="241.638" y1="307.712" x2="-75.9761" y2="468.881" gradientUnits="userSpaceOnUse">
<stop stop-color="#8DA4AB"/>
<stop offset="0.2294" stop-color="#4C7789"/>
<stop offset="0.711" stop-color="#22465F"/>
<stop offset="1" stop-color="#041727"/>
</linearGradient>
<linearGradient id="paint28_linear_28_15" x1="244.514" y1="307.222" x2="-78.9579" y2="473.523" gradientUnits="userSpaceOnUse">
<stop stop-color="#8DA4AB"/>
<stop offset="0.2294" stop-color="#4C7789"/>
<stop offset="0.711" stop-color="#22465F"/>
<stop offset="1" stop-color="#041727"/>
</linearGradient>
<linearGradient id="paint29_linear_28_15" x1="247.438" y1="306.717" x2="-81.9339" y2="478.199" gradientUnits="userSpaceOnUse">
<stop stop-color="#8DA4AB"/>
<stop offset="0.2294" stop-color="#4C7789"/>
<stop offset="0.711" stop-color="#22465F"/>
<stop offset="1" stop-color="#041727"/>
</linearGradient>
<linearGradient id="paint30_linear_28_15" x1="250.392" y1="306.18" x2="-84.916" y2="482.863" gradientUnits="userSpaceOnUse">
<stop stop-color="#8DA4AB"/>
<stop offset="0.2294" stop-color="#4C7789"/>
<stop offset="0.711" stop-color="#22465F"/>
<stop offset="1" stop-color="#041727"/>
</linearGradient>
<linearGradient id="paint31_linear_28_15" x1="253.624" y1="306.761" x2="-87.3217" y2="489.097" gradientUnits="userSpaceOnUse">
<stop stop-color="#8DA4AB"/>
<stop offset="0.2294" stop-color="#4C7789"/>
<stop offset="0.711" stop-color="#22465F"/>
<stop offset="1" stop-color="#041727"/>
</linearGradient>
<linearGradient id="paint32_linear_28_15" x1="256.898" y1="307.299" x2="-89.7228" y2="495.314" gradientUnits="userSpaceOnUse">
<stop stop-color="#8DA4AB"/>
<stop offset="0.2294" stop-color="#4C7789"/>
<stop offset="0.711" stop-color="#22465F"/>
<stop offset="1" stop-color="#041727"/>
</linearGradient>
<linearGradient id="paint33_linear_28_15" x1="260.205" y1="307.817" x2="-92.12" y2="501.542" gradientUnits="userSpaceOnUse">
<stop stop-color="#8DA4AB"/>
<stop offset="0.2294" stop-color="#4C7789"/>
<stop offset="0.711" stop-color="#22465F"/>
<stop offset="1" stop-color="#041727"/>
</linearGradient>
<linearGradient id="paint34_linear_28_15" x1="263.556" y1="308.305" x2="-94.5139" y2="507.765" gradientUnits="userSpaceOnUse">
<stop stop-color="#8DA4AB"/>
<stop offset="0.2294" stop-color="#4C7789"/>
<stop offset="0.711" stop-color="#22465F"/>
<stop offset="1" stop-color="#041727"/>
</linearGradient>
<linearGradient id="paint35_linear_28_15" x1="266.946" y1="308.769" x2="-96.9044" y2="513.995" gradientUnits="userSpaceOnUse">
<stop stop-color="#8DA4AB"/>
<stop offset="0.2294" stop-color="#4C7789"/>
<stop offset="0.711" stop-color="#22465F"/>
<stop offset="1" stop-color="#041727"/>
</linearGradient>
<linearGradient id="paint36_linear_28_15" x1="270.377" y1="309.193" x2="-99.3013" y2="520.2" gradientUnits="userSpaceOnUse">
<stop stop-color="#8DA4AB"/>
<stop offset="0.2294" stop-color="#4C7789"/>
<stop offset="0.711" stop-color="#22465F"/>
<stop offset="1" stop-color="#041727"/>
</linearGradient>
<linearGradient id="paint37_linear_28_15" x1="272.37" y1="311.141" x2="-101.374" y2="527.8" gradientUnits="userSpaceOnUse">
<stop stop-color="#8DA4AB"/>
<stop offset="0.2294" stop-color="#4C7789"/>
<stop offset="0.711" stop-color="#22465F"/>
<stop offset="1" stop-color="#041727"/>
</linearGradient>
<linearGradient id="paint38_linear_28_15" x1="274.407" y1="313.062" x2="-103.421" y2="535.387" gradientUnits="userSpaceOnUse">
<stop stop-color="#8DA4AB"/>
<stop offset="0.2294" stop-color="#4C7789"/>
<stop offset="0.711" stop-color="#22465F"/>
<stop offset="1" stop-color="#041727"/>
</linearGradient>
<linearGradient id="paint39_linear_28_15" x1="276.478" y1="314.941" x2="-105.462" y2="542.943" gradientUnits="userSpaceOnUse">
<stop stop-color="#8DA4AB"/>
<stop offset="0.2294" stop-color="#4C7789"/>
<stop offset="0.711" stop-color="#22465F"/>
<stop offset="1" stop-color="#041727"/>
</linearGradient>
<linearGradient id="paint40_linear_28_15" x1="278.589" y1="316.796" x2="-107.482" y2="550.486" gradientUnits="userSpaceOnUse">
<stop stop-color="#8DA4AB"/>
<stop offset="0.2294" stop-color="#4C7789"/>
<stop offset="0.711" stop-color="#22465F"/>
<stop offset="1" stop-color="#041727"/>
</linearGradient>
<linearGradient id="paint41_linear_28_15" x1="280.736" y1="318.626" x2="-109.491" y2="558.009" gradientUnits="userSpaceOnUse">
<stop stop-color="#8DA4AB"/>
<stop offset="0.2294" stop-color="#4C7789"/>
<stop offset="0.711" stop-color="#22465F"/>
<stop offset="1" stop-color="#041727"/>
</linearGradient>
<linearGradient id="paint42_linear_28_15" x1="283.24" y1="319.038" x2="-113.868" y2="563.474" gradientUnits="userSpaceOnUse">
<stop stop-color="#8DA4AB"/>
<stop offset="0.2294" stop-color="#4C7789"/>
<stop offset="0.711" stop-color="#22465F"/>
<stop offset="1" stop-color="#041727"/>
</linearGradient>
<linearGradient id="paint43_linear_28_15" x1="285.483" y1="313.961" x2="-122.441" y2="561.321" gradientUnits="userSpaceOnUse">
<stop stop-color="#8DA4AB"/>
<stop offset="0.2294" stop-color="#4C7789"/>
<stop offset="0.711" stop-color="#22465F"/>
<stop offset="1" stop-color="#041727"/>
</linearGradient>
<linearGradient id="paint44_linear_28_15" x1="287.773" y1="308.856" x2="-130.979" y2="559.144" gradientUnits="userSpaceOnUse">
<stop stop-color="#8DA4AB"/>
<stop offset="0.2294" stop-color="#4C7789"/>
<stop offset="0.711" stop-color="#22465F"/>
<stop offset="1" stop-color="#041727"/>
</linearGradient>
<linearGradient id="paint45_linear_28_15" x1="290.1" y1="303.726" x2="-139.497" y2="556.946" gradientUnits="userSpaceOnUse">
<stop stop-color="#8DA4AB"/>
<stop offset="0.2294" stop-color="#4C7789"/>
<stop offset="0.711" stop-color="#22465F"/>
<stop offset="1" stop-color="#041727"/>
</linearGradient>
<linearGradient id="paint46_linear_28_15" x1="292.459" y1="298.56" x2="-148.005" y2="554.725" gradientUnits="userSpaceOnUse">
<stop stop-color="#8DA4AB"/>
<stop offset="0.2294" stop-color="#4C7789"/>
<stop offset="0.711" stop-color="#22465F"/>
<stop offset="1" stop-color="#041727"/>
</linearGradient>
<linearGradient id="paint47_linear_28_15" x1="294.869" y1="293.369" x2="-156.486" y2="552.501" gradientUnits="userSpaceOnUse">
<stop stop-color="#8DA4AB"/>
<stop offset="0.2294" stop-color="#4C7789"/>
<stop offset="0.711" stop-color="#22465F"/>
<stop offset="1" stop-color="#041727"/>
</linearGradient>
<linearGradient id="paint48_linear_28_15" x1="297.31" y1="288.151" x2="-164.96" y2="550.26" gradientUnits="userSpaceOnUse">
<stop stop-color="#8DA4AB"/>
<stop offset="0.2294" stop-color="#4C7789"/>
<stop offset="0.711" stop-color="#22465F"/>
<stop offset="1" stop-color="#041727"/>
</linearGradient>
<linearGradient id="paint49_linear_28_15" x1="297.889" y1="282.883" x2="-174.362" y2="546.417" gradientUnits="userSpaceOnUse">
<stop stop-color="#8DA4AB"/>
<stop offset="0.2294" stop-color="#4C7789"/>
<stop offset="0.711" stop-color="#22465F"/>
<stop offset="1" stop-color="#041727"/>
</linearGradient>
<linearGradient id="paint50_linear_28_15" x1="298.504" y1="277.589" x2="-183.717" y2="542.56" gradientUnits="userSpaceOnUse">
<stop stop-color="#8DA4AB"/>
<stop offset="0.2294" stop-color="#4C7789"/>
<stop offset="0.711" stop-color="#22465F"/>
<stop offset="1" stop-color="#041727"/>
</linearGradient>
<linearGradient id="paint51_linear_28_15" x1="299.169" y1="272.268" x2="-193.024" y2="538.68" gradientUnits="userSpaceOnUse">
<stop stop-color="#8DA4AB"/>
<stop offset="0.2294" stop-color="#4C7789"/>
<stop offset="0.711" stop-color="#22465F"/>
<stop offset="1" stop-color="#041727"/>
</linearGradient>
<linearGradient id="paint52_linear_28_15" x1="299.863" y1="266.91" x2="-202.303" y2="534.783" gradientUnits="userSpaceOnUse">
<stop stop-color="#8DA4AB"/>
<stop offset="0.2294" stop-color="#4C7789"/>
<stop offset="0.711" stop-color="#22465F"/>
<stop offset="1" stop-color="#041727"/>
</linearGradient>
<linearGradient id="paint53_linear_28_15" x1="300.594" y1="261.534" x2="-211.549" y2="530.884" gradientUnits="userSpaceOnUse">
<stop stop-color="#8DA4AB"/>
<stop offset="0.2294" stop-color="#4C7789"/>
<stop offset="0.711" stop-color="#22465F"/>
<stop offset="1" stop-color="#041727"/>
</linearGradient>
<linearGradient id="paint54_linear_28_15" x1="301.374" y1="256.134" x2="-220.756" y2="526.985" gradientUnits="userSpaceOnUse">
<stop stop-color="#8DA4AB"/>
<stop offset="0.2294" stop-color="#4C7789"/>
<stop offset="0.711" stop-color="#22465F"/>
<stop offset="1" stop-color="#041727"/>
</linearGradient>
<linearGradient id="paint55_linear_28_15" x1="300.056" y1="249.686" x2="-230.24" y2="520.009" gradientUnits="userSpaceOnUse">
<stop stop-color="#8DA4AB"/>
<stop offset="0.2294" stop-color="#4C7789"/>
<stop offset="0.711" stop-color="#22465F"/>
<stop offset="1" stop-color="#041727"/>
</linearGradient>
<linearGradient id="paint56_linear_28_15" x1="298.781" y1="243.208" x2="-239.659" y2="513.023" gradientUnits="userSpaceOnUse">
<stop stop-color="#8DA4AB"/>
<stop offset="0.2294" stop-color="#4C7789"/>
<stop offset="0.711" stop-color="#22465F"/>
<stop offset="1" stop-color="#041727"/>
</linearGradient>
<linearGradient id="paint57_linear_28_15" x1="297.548" y1="236.699" x2="-249.011" y2="506.028" gradientUnits="userSpaceOnUse">
<stop stop-color="#8DA4AB"/>
<stop offset="0.2294" stop-color="#4C7789"/>
<stop offset="0.711" stop-color="#22465F"/>
<stop offset="1" stop-color="#041727"/>
</linearGradient>
<linearGradient id="paint58_linear_28_15" x1="296.354" y1="230.167" x2="-258.297" y2="499.023" gradientUnits="userSpaceOnUse">
<stop stop-color="#8DA4AB"/>
<stop offset="0.2294" stop-color="#4C7789"/>
<stop offset="0.711" stop-color="#22465F"/>
<stop offset="1" stop-color="#041727"/>
</linearGradient>
<linearGradient id="paint59_linear_28_15" x1="295.195" y1="223.607" x2="-267.537" y2="492.022" gradientUnits="userSpaceOnUse">
<stop stop-color="#8DA4AB"/>
<stop offset="0.2294" stop-color="#4C7789"/>
<stop offset="0.711" stop-color="#22465F"/>
<stop offset="1" stop-color="#041727"/>
</linearGradient>
<linearGradient id="paint60_linear_28_15" x1="295.927" y1="217.435" x2="-276.968" y2="489.592" gradientUnits="userSpaceOnUse">
<stop stop-color="#8DA4AB"/>
<stop offset="0.2294" stop-color="#4C7789"/>
<stop offset="0.711" stop-color="#22465F"/>
<stop offset="1" stop-color="#041727"/>
</linearGradient>
<linearGradient id="paint61_linear_28_15" x1="304.261" y1="212.576" x2="-280.879" y2="495.648" gradientUnits="userSpaceOnUse">
<stop stop-color="#8DA4AB"/>
<stop offset="0.2294" stop-color="#4C7789"/>
<stop offset="0.711" stop-color="#22465F"/>
<stop offset="1" stop-color="#041727"/>
</linearGradient>
<linearGradient id="paint62_linear_28_15" x1="312.636" y1="207.689" x2="-284.708" y2="501.706" gradientUnits="userSpaceOnUse">
<stop stop-color="#8DA4AB"/>
<stop offset="0.2294" stop-color="#4C7789"/>
<stop offset="0.711" stop-color="#22465F"/>
<stop offset="1" stop-color="#041727"/>
</linearGradient>
<linearGradient id="paint63_linear_28_15" x1="321.049" y1="202.782" x2="-288.457" y2="507.758" gradientUnits="userSpaceOnUse">
<stop stop-color="#8DA4AB"/>
<stop offset="0.2294" stop-color="#4C7789"/>
<stop offset="0.711" stop-color="#22465F"/>
<stop offset="1" stop-color="#041727"/>
</linearGradient>
<linearGradient id="paint64_linear_28_15" x1="329.504" y1="197.839" x2="-292.146" y2="513.798" gradientUnits="userSpaceOnUse">
<stop stop-color="#8DA4AB"/>
<stop offset="0.2294" stop-color="#4C7789"/>
<stop offset="0.711" stop-color="#22465F"/>
<stop offset="1" stop-color="#041727"/>
</linearGradient>
<linearGradient id="paint65_linear_28_15" x1="337.998" y1="192.869" x2="-295.772" y2="519.822" gradientUnits="userSpaceOnUse">
<stop stop-color="#8DA4AB"/>
<stop offset="0.2294" stop-color="#4C7789"/>
<stop offset="0.711" stop-color="#22465F"/>
<stop offset="1" stop-color="#041727"/>
</linearGradient>
<linearGradient id="paint66_linear_28_15" x1="346.532" y1="187.873" x2="-299.347" y2="525.839" gradientUnits="userSpaceOnUse">
<stop stop-color="#8DA4AB"/>
<stop offset="0.2294" stop-color="#4C7789"/>
<stop offset="0.711" stop-color="#22465F"/>
<stop offset="1" stop-color="#041727"/>
</linearGradient>
<linearGradient id="paint67_linear_28_15" x1="354.596" y1="182.633" x2="-301.096" y2="531.759" gradientUnits="userSpaceOnUse">
<stop stop-color="#8DA4AB"/>
<stop offset="0.2294" stop-color="#4C7789"/>
<stop offset="0.711" stop-color="#22465F"/>
<stop offset="1" stop-color="#041727"/>
</linearGradient>
<linearGradient id="paint68_linear_28_15" x1="362.692" y1="177.372" x2="-302.757" y2="537.666" gradientUnits="userSpaceOnUse">
<stop stop-color="#8DA4AB"/>
<stop offset="0.2294" stop-color="#4C7789"/>
<stop offset="0.711" stop-color="#22465F"/>
<stop offset="1" stop-color="#041727"/>
</linearGradient>
<linearGradient id="paint69_linear_28_15" x1="370.835" y1="172.077" x2="-304.316" y2="543.524" gradientUnits="userSpaceOnUse">
<stop stop-color="#8DA4AB"/>
<stop offset="0.2294" stop-color="#4C7789"/>
<stop offset="0.711" stop-color="#22465F"/>
<stop offset="1" stop-color="#041727"/>
</linearGradient>
<linearGradient id="paint70_linear_28_15" x1="379.01" y1="166.757" x2="-305.799" y2="549.359" gradientUnits="userSpaceOnUse">
<stop stop-color="#8DA4AB"/>
<stop offset="0.2294" stop-color="#4C7789"/>
<stop offset="0.711" stop-color="#22465F"/>
<stop offset="1" stop-color="#041727"/>
</linearGradient>
<linearGradient id="paint71_linear_28_15" x1="387.228" y1="161.404" x2="-307.208" y2="555.15" gradientUnits="userSpaceOnUse">
<stop stop-color="#8DA4AB"/>
<stop offset="0.2294" stop-color="#4C7789"/>
<stop offset="0.711" stop-color="#22465F"/>
<stop offset="1" stop-color="#041727"/>
</linearGradient>
<linearGradient id="paint72_linear_28_15" x1="395.484" y1="156.033" x2="-308.546" y2="560.92" gradientUnits="userSpaceOnUse">
<stop stop-color="#8DA4AB"/>
<stop offset="0.2294" stop-color="#4C7789"/>
<stop offset="0.711" stop-color="#22465F"/>
<stop offset="1" stop-color="#041727"/>
</linearGradient>
<linearGradient id="paint73_linear_28_15" x1="404.487" y1="150.953" x2="-305.665" y2="566.523" gradientUnits="userSpaceOnUse">
<stop stop-color="#8DA4AB"/>
<stop offset="0.2294" stop-color="#4C7789"/>
<stop offset="0.711" stop-color="#22465F"/>
<stop offset="1" stop-color="#041727"/>
</linearGradient>
<linearGradient id="paint74_linear_28_15" x1="413.529" y1="145.849" x2="-302.663" y2="572.072" gradientUnits="userSpaceOnUse">
<stop stop-color="#8DA4AB"/>
<stop offset="0.2294" stop-color="#4C7789"/>
<stop offset="0.711" stop-color="#22465F"/>
<stop offset="1" stop-color="#041727"/>
</linearGradient>
<linearGradient id="paint75_linear_28_15" x1="422.611" y1="140.717" x2="-299.548" y2="577.543" gradientUnits="userSpaceOnUse">
<stop stop-color="#8DA4AB"/>
<stop offset="0.2294" stop-color="#4C7789"/>
<stop offset="0.711" stop-color="#22465F"/>
<stop offset="1" stop-color="#041727"/>
</linearGradient>
<linearGradient id="paint76_linear_28_15" x1="431.732" y1="135.553" x2="-296.335" y2="582.952" gradientUnits="userSpaceOnUse">
<stop stop-color="#8DA4AB"/>
<stop offset="0.2294" stop-color="#4C7789"/>
<stop offset="0.711" stop-color="#22465F"/>
<stop offset="1" stop-color="#041727"/>
</linearGradient>
<linearGradient id="paint77_linear_28_15" x1="440.892" y1="130.355" x2="-293.016" y2="588.288" gradientUnits="userSpaceOnUse">
<stop stop-color="#8DA4AB"/>
<stop offset="0.2294" stop-color="#4C7789"/>
<stop offset="0.711" stop-color="#22465F"/>
<stop offset="1" stop-color="#041727"/>
</linearGradient>
<linearGradient id="paint78_linear_28_15" x1="450.765" y1="122.118" x2="-294.916" y2="589.174" gradientUnits="userSpaceOnUse">
<stop stop-color="#8DA4AB"/>
<stop offset="0.2294" stop-color="#4C7789"/>
<stop offset="0.711" stop-color="#22465F"/>
<stop offset="1" stop-color="#041727"/>
</linearGradient>
</defs>
</svg>
