<svg width="1920" height="3320" viewBox="0 0 1920 3320" fill="none" xmlns="http://www.w3.org/2000/svg">
<g opacity="0.1">
<path opacity="0.54" d="M2236.91 679.657C2193.54 605.206 2083.39 593.963 2007.81 635.29C1932.19 676.602 1884.81 754.886 1847.26 832.479C1809.68 910.058 1777.11 992.347 1718.15 1055.18C1596.1 1185.21 1397.31 1198.58 1219.08 1198.32C1040.85 1198.05 845.003 1198.86 709.314 1314.6C602.943 1405.37 558.166 1547.36 480.213 1663.46C344.151 1866.13 94.7044 1986.87 -148.522 1967.69" stroke="url(#paint0_linear_28_176)" stroke-width="1.56225" stroke-miterlimit="10"/>
<path opacity="0.54" d="M2252.86 696.577C2209.59 622.173 2099.94 610.359 2024.08 650.797C2017.3 654.393 2010.75 658.346 2004.37 662.501C1939.66 705.116 1896.65 775.57 1861.77 845.615C1855.03 859.136 1848.44 872.807 1841.85 886.479C1810.95 950.682 1779.71 1015.27 1730.91 1066.73C1715.1 1083.42 1697.99 1098.19 1679.83 1111.22C1557.38 1199.26 1386.85 1208.83 1231.83 1207.4C1220.56 1207.28 1209.24 1207.19 1197.87 1207.11C1029.5 1205.99 851.811 1212.5 722.47 1314.73C685.482 1343.97 654.144 1378.37 627.18 1417.76C595.329 1464.26 570.085 1516.61 544.755 1567.71C527.456 1602.6 509.985 1637.07 489.897 1669.76C480.452 1685.13 470.357 1700.1 459.588 1714.62C391.074 1807.07 295.416 1880.45 188.665 1926.78C81.6554 1973.22 -36.2905 1993.06 -152.459 1982.85" stroke="url(#paint1_linear_28_176)" stroke-width="1.56225" stroke-miterlimit="10"/>
<path opacity="0.54" d="M2268.8 713.501C2225.63 639.09 2116.51 626.723 2040.38 666.27C2033.57 669.814 2026.98 673.663 2020.58 677.766C1955.59 719.617 1911.89 789.316 1876.26 858.79C1869.39 872.214 1862.69 885.751 1855.97 899.324C1824.46 963.018 1792.7 1027.21 1743.69 1078.33C1727.8 1094.9 1710.67 1109.62 1692.45 1122.59C1569.63 1210.17 1399.37 1219.21 1244.58 1216.58C1233.35 1216.39 1222.02 1216.2 1210.69 1216.02C1042.71 1213.46 867.041 1218.83 735.642 1315.04C697.238 1343.13 663.333 1375.73 634.793 1415.5C601.052 1462.51 575.828 1517.19 551.609 1570.17C535.075 1606.32 518.745 1642.09 499.605 1676.12C490.58 1692.14 480.919 1707.72 470.429 1722.91C403.724 1819.61 305.203 1896.67 195.054 1943.83C84.6812 1991.1 -36.98 2009.53 -156.414 1997.96" stroke="url(#paint2_linear_28_176)" stroke-width="1.56225" stroke-miterlimit="10"/>
<path opacity="0.54" d="M2284.77 730.385C2241.7 656.02 2133.09 643.046 2056.71 681.756C2049.89 685.211 2043.26 688.956 2036.84 693.007C1971.51 734.115 1927.16 803.023 1890.8 871.94C1883.82 885.23 1876.93 898.69 1870.1 912.13C1837.98 975.313 1805.71 1039.08 1756.48 1089.89C1740.56 1106.36 1723.38 1120.97 1705.14 1133.89C1582 1221 1411.99 1229.53 1257.41 1225.7C1246.16 1225.42 1234.88 1225.12 1223.58 1224.86C1055.94 1220.86 882.176 1225.08 748.859 1315.23C708.987 1342.2 672.605 1372.99 642.472 1413.18C606.806 1460.68 581.638 1517.7 558.566 1572.59C542.782 1610.04 527.645 1647.08 509.417 1682.44C500.863 1699.08 491.569 1715.33 481.374 1731.17C416.478 1832.1 315.131 1912.85 201.582 1960.84C87.8105 2008.94 -37.5294 2025.97 -160.245 2013.07" stroke="url(#paint3_linear_28_176)" stroke-width="1.56225" stroke-miterlimit="10"/>
<path opacity="0.54" d="M2300.75 747.323C2257.76 672.988 2149.68 659.46 2073.03 697.243C2066.16 700.631 2059.55 704.303 2053.09 708.25C1987.44 748.578 1942.45 816.747 1905.38 885.108C1898.23 898.285 1891.26 911.626 1884.28 925.004C1851.56 987.678 1818.72 1051.04 1769.32 1101.56C1753.31 1117.91 1736.12 1132.47 1717.84 1145.28C1594.36 1231.95 1424.59 1239.9 1270.22 1234.95C1259 1234.59 1247.71 1234.21 1236.43 1233.82C1069.17 1228.38 897.057 1231.31 762.064 1315.56C720.702 1341.35 681.813 1370.4 650.139 1410.99C612.532 1459.01 587.435 1518.35 565.474 1575.12C550.492 1613.85 536.46 1652.16 519.165 1688.91C511.046 1706.16 502.119 1723.08 492.238 1739.6C429.188 1844.8 324.942 1929.21 208.031 1978.03C90.897 2026.98 -38.1582 2042.59 -164.155 2028.38" stroke="url(#paint4_linear_28_176)" stroke-width="1.56225" stroke-miterlimit="10"/>
<path opacity="0.54" d="M2316.7 764.246C2273.83 689.92 2166.21 675.807 2089.33 712.716C2082.45 716.015 2075.78 719.62 2069.3 723.515C2003.33 763.063 1957.7 830.492 1919.88 898.283C1912.59 911.361 1905.49 924.605 1898.4 937.849C1865.07 1000.01 1831.71 1062.98 1782.1 1113.16C1766.05 1129.41 1748.81 1143.86 1730.46 1156.65C1606.61 1242.86 1437.15 1250.28 1282.97 1244.12C1271.75 1243.68 1260.55 1243.2 1249.25 1242.73C1082.38 1235.85 911.752 1237.37 775.216 1315.81C732.297 1340.48 691.019 1367.72 657.731 1408.67C618.235 1457.2 593.158 1518.88 572.293 1577.56C558.06 1617.6 545.169 1657.21 528.838 1695.25C521.138 1713.15 512.646 1730.69 503.043 1747.88C441.803 1857.32 334.731 1945.42 214.421 1995.07C93.9029 2044.81 -38.8463 2059.06 -168.124 2043.52" stroke="url(#paint5_linear_28_176)" stroke-width="1.56225" stroke-miterlimit="10"/>
<path opacity="0.54" d="M2332.64 781.169C2289.85 706.873 2182.78 692.17 2105.6 728.225C2098.72 731.436 2091.99 734.973 2085.51 738.78C2019.23 777.6 1972.91 844.223 1934.42 911.435C1927 924.416 1919.75 937.51 1912.52 950.656C1878.63 1012.32 1844.72 1074.85 1794.89 1124.73C1778.77 1140.85 1761.47 1155.24 1743.11 1167.93C1618.93 1253.71 1449.69 1260.58 1295.76 1253.23C1284.57 1252.71 1273.35 1252.14 1262.11 1251.56C1095.61 1243.25 926.292 1243.29 788.431 1316.01C743.934 1339.5 700.252 1364.97 665.408 1406.35C623.986 1455.37 598.966 1519.4 579.248 1579.98C565.78 1621.28 554.03 1662.18 538.648 1701.57C531.419 1720.1 523.294 1738.3 513.97 1756.17C454.539 1869.85 344.605 1961.63 220.932 2012.12C97.0514 2062.7 -39.4131 2075.53 -171.972 2058.68" stroke="url(#paint6_linear_28_176)" stroke-width="1.56225" stroke-miterlimit="10"/>
<path opacity="0.54" d="M2348.61 798.054C2305.94 723.767 2199.34 708.531 2121.94 743.675C2115.04 746.834 2108.31 750.282 2101.76 754.021C2035.17 792.063 1988.2 857.945 1948.97 924.587C1941.43 937.433 1934.03 950.466 1926.69 963.478C1892.17 1024.67 1857.72 1086.75 1807.73 1136.31C1791.56 1152.33 1774.2 1166.64 1755.8 1179.24C1631.28 1264.57 1462.31 1270.91 1308.58 1262.35C1297.4 1261.71 1286.21 1261.06 1275 1260.41C1108.88 1250.66 940.731 1249.03 801.647 1316.2C755.499 1338.5 709.522 1362.24 673.049 1404.01C629.701 1453.53 604.738 1519.9 586.131 1582.37C573.413 1624.97 562.819 1667.13 548.37 1707.89C541.56 1727.07 533.87 1745.88 524.825 1764.43C467.239 1882.37 354.443 1977.82 227.371 2029.14C100.091 2080.55 -40.0521 2091.98 -175.877 2073.77" stroke="url(#paint7_linear_28_176)" stroke-width="1.56225" stroke-miterlimit="10"/>
<path opacity="0.54" d="M2364.59 814.992C2322.03 740.752 2215.94 724.909 2138.26 759.2C2131.31 762.254 2124.56 765.651 2118 769.302C2051.07 806.6 2003.46 871.654 1963.49 937.777C1955.79 950.51 1948.28 963.409 1940.8 976.323C1905.68 1037.01 1870.7 1098.7 1820.5 1147.91C1804.27 1163.86 1786.89 1178.04 1768.45 1190.62C1643.58 1275.46 1474.86 1281.3 1321.36 1271.54C1310.21 1270.83 1299.03 1270.1 1287.82 1269.31C1122.1 1258.1 955.006 1254.75 814.831 1316.47C766.994 1337.55 718.708 1359.6 680.71 1401.73C635.473 1451.75 610.529 1520.46 593.033 1584.81C581.08 1628.68 571.664 1672.14 558.163 1714.25C551.788 1734.04 544.502 1753.53 535.751 1772.72C479.975 1894.9 364.331 1993.99 233.881 2046.19C103.239 2098.44 -40.6565 2108.44 -179.726 2088.92" stroke="url(#paint8_linear_28_176)" stroke-width="1.56225" stroke-miterlimit="10"/>
<path opacity="0.54" d="M2380.54 831.915C2338.07 757.668 2232.5 741.308 2154.55 774.673C2147.58 777.675 2140.79 780.968 2134.23 784.53C2067.01 821.064 2018.73 885.363 1978.04 950.93C1970.21 963.566 1962.57 976.366 1954.96 989.182C1919.23 1049.36 1883.74 1110.62 1833.33 1159.52C1817.02 1175.36 1799.61 1189.48 1781.13 1201.96C1655.93 1286.36 1487.48 1291.66 1334.16 1280.74C1323.04 1279.95 1311.86 1279.09 1300.69 1278.23C1135.35 1265.58 969.173 1260.34 828.059 1316.76C778.513 1336.56 727.955 1356.94 688.364 1399.48C641.202 1450 616.277 1521.04 599.913 1587.32C588.747 1632.51 580.451 1677.21 567.883 1720.7C561.979 1741.11 555.06 1761.28 546.588 1781.15C492.658 1907.57 374.151 2010.35 240.302 2063.37C106.297 2116.46 -41.3283 2125.08 -183.664 2104.21" stroke="url(#paint9_linear_28_176)" stroke-width="1.56225" stroke-miterlimit="10"/>
<path opacity="0.54" d="M2396.48 848.835C2354.12 774.634 2249.03 757.653 2170.88 790.158C2163.9 793.072 2157.1 796.276 2150.47 799.807C2082.92 835.598 2033.97 899.106 1992.57 964.117C1984.62 976.618 1976.84 989.321 1969.1 1002.04C1932.81 1061.72 1896.71 1122.56 1846.14 1171.14C1829.79 1186.87 1812.34 1200.89 1793.8 1213.29C1668.26 1297.25 1500.08 1302.02 1346.96 1289.89C1335.84 1289.01 1324.69 1288.08 1313.56 1287.12C1148.6 1273.03 983.23 1265.75 841.257 1316.99C789.964 1335.51 737.207 1354.24 696.023 1397.2C646.935 1448.2 622.067 1521.59 606.851 1589.77C596.434 1636.27 589.294 1682.22 577.675 1727.05C572.19 1748.12 565.706 1768.89 557.512 1789.43C505.391 1920.1 384.022 2026.55 246.774 2080.4C109.37 2134.32 -41.9346 2141.54 -187.551 2119.35" stroke="url(#paint10_linear_28_176)" stroke-width="1.56225" stroke-miterlimit="10"/>
<path opacity="0.54" d="M2412.45 865.721C2370.17 791.514 2265.61 773.978 2187.17 805.63C2180.15 808.44 2173.33 811.592 2166.69 815.034C2098.82 850.046 2049.23 912.814 2007.13 977.232C1999.05 989.636 1991.1 1002.23 1983.25 1014.81C1946.34 1073.98 1909.73 1134.43 1858.93 1182.7C1842.5 1198.31 1825.03 1212.28 1806.43 1224.62C1680.53 1308.12 1512.62 1312.32 1359.73 1299.03C1348.64 1298.08 1337.5 1297.02 1326.36 1295.97C1161.79 1280.45 997.188 1270.99 854.421 1317.21C801.36 1334.39 746.389 1351.51 703.628 1394.85C652.65 1446.36 627.802 1522.08 613.697 1592.15C604.045 1639.9 598.046 1687.15 587.376 1733.32C582.362 1755.01 576.245 1776.46 568.33 1797.68C518.018 1932.59 393.786 2042.71 253.176 2097.41C112.41 2152.17 -42.6104 2157.97 -191.508 2134.45" stroke="url(#paint11_linear_28_176)" stroke-width="1.56225" stroke-miterlimit="10"/>
<path opacity="0.54" d="M2428.43 882.66C2386.27 808.498 2282.2 790.393 2203.5 821.119C2196.46 823.876 2189.59 826.925 2182.9 830.3C2114.7 864.531 2064.44 926.545 2021.62 990.407C2013.37 1002.7 2005.35 1015.17 1997.36 1027.65C1959.85 1086.31 1922.72 1146.34 1871.71 1194.3C1855.24 1209.81 1837.68 1223.7 1819.07 1235.95C1692.83 1319.01 1525.19 1322.67 1372.5 1308.17C1361.4 1307.13 1350.29 1306 1339.2 1304.84C1174.97 1287.87 1011.08 1276.08 867.586 1317.43C812.721 1333.25 755.593 1348.83 711.254 1392.55C658.351 1444.55 633.56 1522.62 620.55 1594.61C611.648 1643.67 606.827 1692.23 597.068 1739.72C592.474 1762.06 586.776 1784.16 579.154 1806.01C530.689 1945.18 403.595 2058.98 259.585 2114.5C115.419 2170.08 -43.2792 2174.49 -195.443 2149.62" stroke="url(#paint12_linear_28_176)" stroke-width="1.56225" stroke-miterlimit="10"/>
<path opacity="0.54" d="M2444.38 899.582C2402.31 825.415 2298.77 806.755 2219.78 836.628C2212.73 839.297 2205.85 842.293 2199.11 845.564C2130.61 879.068 2079.68 940.291 2036.16 1003.6C2027.77 1015.79 2019.6 1028.11 2011.51 1040.51C1973.4 1098.66 1935.71 1158.28 1884.53 1205.92C1868.02 1221.32 1850.41 1235.1 1831.75 1247.29C1705.19 1329.87 1537.76 1333.02 1385.31 1317.33C1374.25 1316.18 1363.14 1314.96 1352.08 1313.72C1188.23 1295.32 1025.01 1281.09 880.811 1317.71C824.135 1332.1 764.836 1346.17 718.905 1390.3C664.076 1442.79 639.341 1523.22 627.479 1597.1C619.378 1647.44 615.662 1697.28 606.852 1746.12C602.692 1769.06 597.376 1791.79 590.07 1814.34C543.414 1957.74 413.457 2075.23 266.085 2131.59C118.557 2188.01 -43.857 2191.01 -199.302 2164.81" stroke="url(#paint13_linear_28_176)" stroke-width="1.56225" stroke-miterlimit="10"/>
<path opacity="0.54" d="M2460.34 916.465C2418.37 842.344 2315.35 823.078 2236.12 852.076C2229.06 854.656 2222.12 857.585 2215.38 860.768C2146.56 893.492 2094.96 953.959 2050.71 1016.71C2042.21 1028.77 2033.89 1041.03 2025.64 1053.32C1986.94 1111.01 1948.7 1170.18 1897.32 1217.48C1880.73 1232.76 1863.1 1246.49 1844.41 1258.63C1717.52 1340.77 1550.36 1343.39 1398.1 1326.52C1387.03 1325.28 1375.95 1323.99 1364.94 1322.64C1201.47 1302.8 1038.84 1286.02 893.993 1317.98C835.469 1330.91 774.072 1343.5 726.564 1388.01C669.846 1441.01 645.145 1523.73 634.379 1599.54C627.028 1651.18 624.468 1702.27 616.591 1752.49C612.902 1776.06 607.954 1799.46 600.927 1822.68C556.079 1970.33 423.297 2091.5 272.526 2148.69C121.599 2205.95 -44.4939 2207.54 -203.22 2180.02" stroke="url(#paint14_linear_28_176)" stroke-width="1.56225" stroke-miterlimit="10"/>
<path opacity="0.54" d="M2476.29 933.389C2434.41 859.261 2331.9 839.477 2252.41 867.549C2245.3 870.062 2238.35 872.902 2231.58 876.033C2162.43 908.014 2110.2 967.705 2065.22 1029.85C2056.59 1041.81 2048.15 1053.93 2039.77 1066.13C2000.46 1123.31 1961.71 1182.05 1910.12 1229.04C1893.48 1244.22 1875.81 1257.85 1857.06 1269.91C1729.81 1351.61 1562.91 1353.68 1410.88 1335.63C1399.85 1334.31 1388.81 1332.91 1377.75 1331.46C1214.67 1310.18 1052.61 1290.67 907.173 1318.16C846.833 1329.56 783.27 1340.74 734.169 1385.66C675.526 1439.15 650.882 1524.22 641.226 1601.91C634.64 1654.82 633.222 1707.2 626.293 1758.76C623.023 1782.99 618.51 1806.99 611.761 1830.89C568.76 1982.79 433.078 2107.63 278.944 2165.66C124.655 2223.75 -45.1531 2223.93 -207.16 2195.09" stroke="url(#paint15_linear_28_176)" stroke-width="1.56225" stroke-miterlimit="10"/>
<path opacity="0.54" d="M2492.27 950.326C2450.51 876.244 2348.47 855.839 2268.72 883.072C2261.6 885.497 2254.65 888.248 2247.83 891.312C2178.35 922.513 2125.48 981.465 2079.79 1043.05C2070.99 1054.9 2062.42 1066.93 2053.92 1078.99C2014.01 1135.66 1974.7 1194 1922.94 1240.66C1906.22 1255.72 1888.53 1269.29 1869.74 1281.25C1742.15 1362.51 1575.52 1364.05 1423.69 1344.78C1412.65 1343.38 1401.64 1341.91 1390.63 1340.34C1227.93 1317.63 1066.46 1295.35 920.376 1318.39C858.197 1328.21 792.512 1338.07 741.834 1383.38C681.265 1437.36 656.677 1524.78 648.117 1604.39C642.281 1658.6 642.055 1712.25 636.038 1765.14C633.24 1789.99 629.093 1814.67 622.638 1839.2C581.447 1995.35 442.939 2123.87 285.406 2182.73C127.717 2241.65 -45.7691 2240.43 -211.058 2210.27" stroke="url(#paint16_linear_28_176)" stroke-width="1.56225" stroke-miterlimit="10"/>
<path opacity="0.54" d="M2508.22 967.248C2466.53 893.196 2365.04 872.2 2285.05 898.559C2277.91 900.932 2270.92 903.579 2264.07 906.591C2194.31 937.028 2140.73 995.21 2094.32 1056.24C2085.39 1067.99 2076.7 1079.88 2068.07 1091.84C2027.56 1148 1987.72 1205.95 1935.75 1252.27C1918.99 1267.23 1901.24 1280.74 1882.4 1292.63C1754.47 1373.44 1588.11 1374.45 1436.48 1353.97C1425.47 1352.5 1414.48 1350.9 1403.49 1349.26C1241.17 1325.12 1080.33 1299.91 933.601 1318.68C869.563 1326.86 801.755 1335.41 749.536 1381.11C687.078 1435.6 662.51 1525.35 655.097 1606.86C650.026 1662.33 650.942 1717.28 645.858 1771.54C643.479 1797.04 639.751 1822.37 633.575 1847.58C594.229 2007.98 452.823 2140.17 291.927 2199.87C130.876 2259.63 -46.3259 2256.99 -214.88 2225.48" stroke="url(#paint17_linear_28_176)" stroke-width="1.56225" stroke-miterlimit="10"/>
<path opacity="0.54" d="M2524.18 984.132C2482.61 910.09 2381.6 888.561 2301.34 914.03C2294.16 916.299 2287.14 918.894 2280.29 921.817C2210.19 951.511 2155.99 1008.92 2108.86 1069.39C2099.81 1081.01 2090.94 1092.82 2082.23 1104.67C2041.11 1160.32 2000.76 1217.84 1948.57 1263.89C1931.76 1278.74 1913.93 1292.13 1895.07 1303.97C1766.79 1384.29 1600.67 1384.8 1449.28 1363.13C1438.27 1361.57 1427.3 1359.89 1416.37 1358.15C1254.42 1332.57 1094.14 1304.35 946.798 1318.91C880.915 1325.42 811.006 1332.71 757.158 1378.81C692.774 1433.79 668.226 1525.87 661.961 1609.28C657.676 1666.07 659.696 1722.3 655.613 1777.88C653.668 1803.99 650.36 1829.97 644.462 1855.85C606.91 2020.53 462.693 2156.37 298.362 2216.88C133.948 2277.49 -46.9692 2273.44 -218.805 2240.6" stroke="url(#paint18_linear_28_176)" stroke-width="1.56225" stroke-miterlimit="10"/>
<path opacity="0.54" d="M2540.13 1001.05C2498.63 927.043 2398.17 904.923 2317.63 929.502C2310.44 931.682 2303.4 934.226 2296.51 937.045C2226.09 965.959 2171.21 1022.61 2123.37 1082.53C2114.19 1094.05 2105.2 1105.73 2096.31 1117.49C2054.62 1172.65 2013.67 1229.75 1961.27 1275.46C1944.39 1290.19 1926.54 1303.53 1907.67 1315.28C1779.05 1395.16 1613.22 1395.1 1462 1372.29C1451.03 1370.62 1440.04 1368.89 1429.1 1367.06C1267.54 1340.04 1107.89 1308.74 959.895 1319.19C892.199 1323.95 820.122 1330.04 764.718 1376.57C698.408 1432.04 673.916 1526.47 668.761 1611.76C665.227 1669.86 668.403 1727.34 665.268 1784.26C663.78 1811.04 660.854 1837.64 655.235 1864.21C619.492 2033.12 472.413 2172.65 304.719 2234C136.906 2295.43 -47.7052 2290.01 -222.807 2255.82" stroke="url(#paint19_linear_28_176)" stroke-width="1.56225" stroke-miterlimit="10"/>
<path opacity="0.54" d="M2556.11 1018C2514.75 943.992 2414.78 921.303 2333.97 944.993C2326.75 947.12 2319.67 949.56 2312.76 952.327C2242.04 980.514 2186.5 1036.37 2137.92 1095.68C2128.57 1107.09 2119.49 1118.69 2110.48 1130.32C2068.18 1184.96 2026.71 1241.67 1974.11 1287.04C1957.18 1301.67 1939.29 1314.9 1920.36 1326.59C1791.41 1406.03 1625.8 1405.41 1474.82 1381.41C1463.85 1379.65 1452.91 1377.82 1442 1375.91C1280.83 1347.42 1121.84 1312.99 973.152 1319.4C903.641 1322.42 829.417 1327.36 772.414 1374.21C704.215 1430.19 679.743 1526.96 675.721 1614.18C672.952 1673.54 677.269 1732.32 675.068 1790.62C674.013 1818.01 671.492 1845.3 666.166 1872.5C632.27 2045.67 482.327 2188.87 311.234 2251.05C140.059 2313.32 -48.3042 2306.48 -226.65 2270.98" stroke="url(#paint20_linear_28_176)" stroke-width="1.56225" stroke-miterlimit="10"/>
<path opacity="0.54" d="M2572.06 1034.92C2530.77 960.943 2431.29 937.684 2350.28 960.515C2343.06 962.554 2335.92 964.926 2329 967.604C2257.96 995.012 2201.74 1050.12 2152.48 1108.89C2143 1120.19 2133.77 1131.64 2124.63 1143.18C2081.71 1197.35 2039.74 1253.59 1986.92 1298.65C1969.92 1313.16 1952 1326.35 1933.01 1337.96C1803.7 1416.95 1638.39 1415.81 1487.62 1390.61C1476.67 1388.77 1465.72 1386.85 1454.86 1384.83C1294.04 1354.89 1135.75 1317.22 986.337 1319.67C915.007 1320.86 838.621 1324.68 780.062 1371.96C709.937 1428.43 685.521 1527.55 682.61 1616.66C680.591 1677.32 686.101 1737.36 684.811 1797C684.192 1824.99 682.089 1852.93 677.042 1880.81C644.955 2058.22 492.166 2205.06 317.695 2268.12C143.12 2331.22 -48.9215 2322.97 -230.549 2286.15" stroke="url(#paint21_linear_28_176)" stroke-width="1.56225" stroke-miterlimit="10"/>
<path opacity="0.54" d="M2588.02 1051.8C2546.85 977.839 2447.88 954.011 2366.58 975.951C2359.31 977.923 2352.2 980.222 2345.23 982.796C2273.87 1009.42 2217.02 1063.79 2167 1121.99C2157.41 1133.16 2148.03 1144.55 2138.77 1155.95C2095.25 1209.61 2052.75 1265.46 1999.73 1310.18C1982.69 1324.59 1964.71 1337.7 1945.68 1349.22C1816.03 1427.76 1650.96 1426.07 1500.41 1399.67C1489.47 1397.75 1478.56 1395.72 1467.73 1393.62C1307.29 1362.25 1149.74 1321.23 999.569 1319.83C926.47 1319.16 847.907 1321.91 787.719 1369.59C715.653 1426.59 691.309 1528.02 689.509 1619.01C688.291 1680.95 694.905 1742.28 694.549 1803.28C694.385 1831.94 692.665 1860.52 687.897 1889.07C657.619 2070.72 502.004 2221.25 324.134 2285.14C146.197 2349.08 -49.5602 2339.42 -234.453 2301.24" stroke="url(#paint22_linear_28_176)" stroke-width="1.56225" stroke-miterlimit="10"/>
<path opacity="0.54" d="M2603.97 1068.73C2562.87 994.793 2464.44 970.374 2382.86 991.461C2375.58 993.344 2368.43 995.539 2361.43 998.098C2289.73 1023.98 2232.21 1077.56 2181.52 1135.21C2171.79 1146.29 2162.26 1157.53 2152.91 1168.85C2108.82 1222.01 2065.72 1277.44 2012.54 1321.84C1995.41 1336.12 1977.43 1349.15 1958.34 1360.59C1828.37 1438.66 1663.55 1436.47 1513.21 1408.87C1502.29 1406.87 1491.38 1404.75 1480.55 1402.53C1320.5 1369.72 1163.73 1325.36 1012.72 1320.09C937.846 1317.48 857.075 1319.22 795.346 1367.29C721.391 1424.8 697.066 1528.56 696.362 1621.47C695.894 1684.72 703.665 1747.3 704.257 1809.65C704.528 1838.92 703.19 1868.12 698.737 1897.37C670.305 2083.28 511.791 2237.47 330.558 2302.2C149.237 2366.93 -50.2138 2355.9 -238.388 2316.4" stroke="url(#paint23_linear_28_176)" stroke-width="1.56225" stroke-miterlimit="10"/>
<path opacity="0.54" d="M2619.95 1085.66C2578.98 1011.74 2481.03 986.785 2399.23 1006.96C2391.94 1008.76 2384.73 1010.88 2377.72 1013.35C2305.74 1038.47 2247.54 1091.29 2196.11 1148.34C2186.26 1159.32 2176.59 1170.46 2167.07 1181.67C2122.37 1234.32 2078.77 1289.33 2025.37 1333.41C2008.2 1347.59 1990.16 1360.55 1971.01 1371.93C1840.67 1449.54 1676.15 1446.84 1526.01 1418.02C1515.09 1415.94 1504.22 1413.7 1493.43 1411.41C1333.75 1377.17 1177.82 1329.36 1025.94 1320.37C949.329 1315.83 866.298 1316.59 802.993 1365.04C727.112 1423.04 702.844 1529.15 703.286 1623.96C703.584 1688.47 712.496 1752.34 714.036 1816.04C714.763 1845.97 713.808 1875.81 709.634 1905.73C683.011 2095.88 521.67 2253.76 337.039 2319.32C152.356 2384.89 -50.811 2372.45 -242.266 2331.63" stroke="url(#paint24_linear_28_176)" stroke-width="1.56225" stroke-miterlimit="10"/>
<path opacity="0.54" d="M2635.9 1102.58C2595 1028.69 2497.6 1003.14 2415.5 1022.47C2408.15 1024.2 2400.97 1026.25 2393.87 1028.64C2321.55 1053.01 2262.7 1105.04 2210.55 1161.54C2200.54 1172.36 2190.78 1183.42 2181.13 1194.53C2135.83 1246.67 2091.69 1301.29 2038.08 1345.07C2020.86 1359.15 2002.75 1371.99 1983.61 1383.33C1852.94 1460.5 1688.65 1457.24 1538.73 1427.27C1527.84 1425.11 1517 1422.81 1506.22 1420.39C1346.92 1384.71 1191.87 1333.44 1039.06 1320.7C960.702 1314.14 875.47 1313.98 810.571 1362.85C732.765 1421.34 708.553 1529.8 710.107 1626.49C711.153 1692.31 721.243 1757.49 723.696 1822.51C724.857 1853.05 724.306 1883.57 720.425 1914.13C695.648 2108.54 531.409 2270.08 343.363 2336.5C155.317 2402.92 -51.5648 2389.06 -246.301 2346.92" stroke="url(#paint25_linear_28_176)" stroke-width="1.56225" stroke-miterlimit="10"/>
<path opacity="0.54" d="M2651.86 1119.47C2611.09 1045.58 2514.13 1019.49 2431.81 1037.9C2424.46 1039.54 2417.22 1041.53 2410.11 1043.83C2337.47 1067.43 2277.98 1118.71 2225.11 1174.65C2214.97 1185.38 2205.04 1196.33 2195.31 1207.31C2149.4 1258.95 2104.71 1313.16 2050.93 1356.61C2033.63 1370.57 2015.49 1383.36 1996.32 1394.6C1865.31 1471.33 1701.28 1467.53 1551.57 1436.35C1540.68 1434.07 1529.88 1431.69 1519.09 1429.18C1360.18 1392.07 1206.06 1337.31 1052.29 1320.86C972.228 1312.3 884.72 1311.2 818.245 1360.44C738.549 1419.44 714.357 1530.23 717.021 1628.81C718.833 1695.89 730.064 1762.36 733.465 1828.72C735.061 1859.88 734.929 1891.05 731.327 1922.28C708.359 2120.93 541.258 2286.15 349.849 2353.41C158.404 2420.65 -52.1566 2405.4 -250.174 2361.93" stroke="url(#paint26_linear_28_176)" stroke-width="1.56225" stroke-miterlimit="10"/>
<path opacity="0.54" d="M2667.81 1136.39C2627.11 1062.54 2530.7 1035.86 2448.1 1053.38C2440.73 1054.96 2433.45 1056.85 2426.33 1059.06C2353.39 1081.93 2293.24 1132.42 2239.62 1187.79C2229.35 1198.42 2219.3 1209.23 2209.41 1220.11C2162.89 1271.23 2117.68 1325.01 2063.68 1368.16C2046.35 1382.02 2028.15 1394.74 2008.92 1405.91C1877.58 1482.2 1713.8 1477.82 1564.3 1445.48C1553.45 1443.12 1542.64 1440.65 1531.89 1438.04C1373.36 1399.49 1220.25 1341.19 1065.42 1321.06C983.68 1310.43 893.888 1308.5 825.835 1358.13C744.214 1417.62 720.041 1530.75 723.875 1631.27C726.473 1699.66 738.823 1767.38 743.158 1835.12C745.209 1866.94 745.46 1898.74 742.137 1930.65C720.978 2133.54 551.051 2302.45 356.243 2370.54C161.436 2438.62 -52.8404 2421.95 -254.139 2377.17" stroke="url(#paint27_linear_28_176)" stroke-width="1.56225" stroke-miterlimit="10"/>
<path opacity="0.54" d="M2683.79 1153.33C2643.22 1079.48 2547.3 1052.23 2464.45 1068.92C2457.07 1070.41 2449.77 1072.24 2442.6 1074.39C2369.33 1096.48 2308.5 1146.22 2254.21 1201.05C2243.81 1211.58 2233.59 1222.28 2223.62 1233.03C2176.52 1283.7 2130.76 1337.04 2076.56 1379.84C2059.15 1393.58 2040.94 1406.21 2021.65 1417.32C1889.96 1493.11 1726.46 1488.25 1577.17 1454.7C1566.31 1452.26 1555.55 1449.68 1544.83 1446.99C1386.68 1407.01 1234.62 1345.13 1078.72 1321.37C995.302 1308.67 903.204 1305.87 833.559 1355.91C750.011 1415.89 725.895 1531.37 730.84 1633.78C734.188 1703.47 747.695 1772.44 752.978 1841.52C755.464 1873.96 756.118 1906.44 753.089 1938.99C733.776 2146.14 560.949 2318.71 362.779 2387.64C164.573 2456.55 -53.3819 2438.48 -257.947 2392.34" stroke="url(#paint28_linear_28_176)" stroke-width="1.56225" stroke-miterlimit="10"/>
<path opacity="0.54" d="M2699.76 1170.21C2659.26 1096.4 2563.87 1068.59 2480.76 1084.35C2473.34 1085.74 2466.01 1087.52 2458.83 1089.58C2385.25 1110.89 2323.78 1159.89 2268.75 1214.11C2258.19 1224.49 2247.88 1235.11 2237.72 1245.79C2190.02 1295.95 2143.7 1348.88 2089.34 1391.35C2071.88 1404.99 2053.61 1417.55 2034.28 1428.55C1902.25 1503.91 1738.99 1498.49 1589.93 1463.76C1579.1 1461.24 1568.33 1458.57 1557.66 1455.77C1399.89 1414.35 1248.93 1348.89 1091.87 1321.5C1006.85 1306.66 912.416 1303.07 841.193 1353.49C755.757 1413.97 731.661 1531.78 737.716 1636.07C741.829 1707.04 756.477 1777.3 762.745 1847.74C765.65 1880.82 766.74 1913.92 763.989 1947.14C746.486 2158.53 570.833 2334.79 369.264 2404.55C167.695 2474.3 -53.9755 2454.82 -261.822 2407.35" stroke="url(#paint29_linear_28_176)" stroke-width="1.56225" stroke-miterlimit="10"/>
<path opacity="0.54" d="M2715.7 1187.14C2675.31 1113.37 2580.44 1084.96 2497.04 1099.86C2489.59 1101.2 2482.24 1102.84 2475.02 1104.88C2401.1 1125.45 2338.97 1173.66 2283.26 1227.34C2272.58 1237.62 2262.14 1248.14 2251.86 1258.69C2203.55 1308.33 2156.72 1360.84 2102.14 1403.01C2084.62 1416.57 2066.33 1429 2046.96 1439.98C1914.6 1514.9 1751.6 1508.95 1602.73 1473.04C1591.89 1470.43 1581.17 1467.65 1570.49 1464.77C1413.07 1421.9 1263.29 1352.88 1105.07 1321.86C1018.43 1304.89 921.626 1300.48 848.81 1351.31C761.448 1412.29 737.408 1532.45 744.574 1638.62C749.437 1710.89 765.278 1782.42 772.443 1854.23C775.819 1887.93 777.276 1921.7 774.804 1955.6C759.11 2171.23 580.594 2351.17 375.663 2421.77C170.694 2492.35 -54.6695 2471.5 -265.781 2422.68" stroke="url(#paint30_linear_28_176)" stroke-width="1.56225" stroke-miterlimit="10"/>
<path opacity="0.54" d="M2731.65 1204.06C2687.76 1123.71 2579.72 1096.51 2491.24 1120.11C2402.8 1143.73 2330.59 1206.57 2265.98 1271.49C2201.38 1336.42 2139.42 1406.49 2059.59 1451.31C1917.26 1531.17 1740.33 1517.92 1583.34 1473.6C1426.3 1429.29 1277.73 1356.64 1118.28 1322.06C1030.05 1302.92 930.881 1297.78 856.488 1348.99C767.2 1410.46 743.217 1532.97 751.515 1641.08C759.814 1749.19 792.536 1855.69 785.731 1963.89C771.883 2183.77 590.506 2367.39 382.175 2438.82C173.844 2510.24 -55.2352 2487.97 -269.628 2437.83" stroke="url(#paint31_linear_28_176)" stroke-width="1.56225" stroke-miterlimit="10"/>
</g>
<defs>
<linearGradient id="paint0_linear_28_176" x1="-177.43" y1="1890.38" x2="2342.02" y2="979.985" gradientUnits="userSpaceOnUse">
<stop stop-color="#8DA4AB"/>
<stop offset="0.2294" stop-color="#4C7789"/>
<stop offset="0.711" stop-color="#22465F"/>
<stop offset="1" stop-color="#041727"/>
</linearGradient>
<linearGradient id="paint1_linear_28_176" x1="-181.88" y1="1905.13" x2="2352.41" y2="977.714" gradientUnits="userSpaceOnUse">
<stop stop-color="#8DA4AB"/>
<stop offset="0.2294" stop-color="#4C7789"/>
<stop offset="0.711" stop-color="#22465F"/>
<stop offset="1" stop-color="#041727"/>
</linearGradient>
<linearGradient id="paint2_linear_28_176" x1="-186.349" y1="1919.84" x2="2362.62" y2="975.4" gradientUnits="userSpaceOnUse">
<stop stop-color="#8DA4AB"/>
<stop offset="0.2294" stop-color="#4C7789"/>
<stop offset="0.711" stop-color="#22465F"/>
<stop offset="1" stop-color="#041727"/>
</linearGradient>
<linearGradient id="paint3_linear_28_176" x1="-190.689" y1="1934.55" x2="2372.71" y2="973.256" gradientUnits="userSpaceOnUse">
<stop stop-color="#8DA4AB"/>
<stop offset="0.2294" stop-color="#4C7789"/>
<stop offset="0.711" stop-color="#22465F"/>
<stop offset="1" stop-color="#041727"/>
</linearGradient>
<linearGradient id="paint4_linear_28_176" x1="-195.109" y1="1949.45" x2="2382.72" y2="971.362" gradientUnits="userSpaceOnUse">
<stop stop-color="#8DA4AB"/>
<stop offset="0.2294" stop-color="#4C7789"/>
<stop offset="0.711" stop-color="#22465F"/>
<stop offset="1" stop-color="#041727"/>
</linearGradient>
<linearGradient id="paint5_linear_28_176" x1="-199.591" y1="1964.19" x2="2392.47" y2="969.249" gradientUnits="userSpaceOnUse">
<stop stop-color="#8DA4AB"/>
<stop offset="0.2294" stop-color="#4C7789"/>
<stop offset="0.711" stop-color="#22465F"/>
<stop offset="1" stop-color="#041727"/>
</linearGradient>
<linearGradient id="paint6_linear_28_176" x1="-203.949" y1="1978.94" x2="2402.09" y2="967.298" gradientUnits="userSpaceOnUse">
<stop stop-color="#8DA4AB"/>
<stop offset="0.2294" stop-color="#4C7789"/>
<stop offset="0.711" stop-color="#22465F"/>
<stop offset="1" stop-color="#041727"/>
</linearGradient>
<linearGradient id="paint7_linear_28_176" x1="-208.366" y1="1993.62" x2="2411.54" y2="965.253" gradientUnits="userSpaceOnUse">
<stop stop-color="#8DA4AB"/>
<stop offset="0.2294" stop-color="#4C7789"/>
<stop offset="0.711" stop-color="#22465F"/>
<stop offset="1" stop-color="#041727"/>
</linearGradient>
<linearGradient id="paint8_linear_28_176" x1="-212.726" y1="2008.38" x2="2420.89" y2="963.368" gradientUnits="userSpaceOnUse">
<stop stop-color="#8DA4AB"/>
<stop offset="0.2294" stop-color="#4C7789"/>
<stop offset="0.711" stop-color="#22465F"/>
<stop offset="1" stop-color="#041727"/>
</linearGradient>
<linearGradient id="paint9_linear_28_176" x1="-217.173" y1="2023.26" x2="2430.15" y2="961.725" gradientUnits="userSpaceOnUse">
<stop stop-color="#8DA4AB"/>
<stop offset="0.2294" stop-color="#4C7789"/>
<stop offset="0.711" stop-color="#22465F"/>
<stop offset="1" stop-color="#041727"/>
</linearGradient>
<linearGradient id="paint10_linear_28_176" x1="-221.572" y1="2037.99" x2="2439.19" y2="959.932" gradientUnits="userSpaceOnUse">
<stop stop-color="#8DA4AB"/>
<stop offset="0.2294" stop-color="#4C7789"/>
<stop offset="0.711" stop-color="#22465F"/>
<stop offset="1" stop-color="#041727"/>
</linearGradient>
<linearGradient id="paint11_linear_28_176" x1="-226.041" y1="2052.69" x2="2448.09" y2="958.102" gradientUnits="userSpaceOnUse">
<stop stop-color="#8DA4AB"/>
<stop offset="0.2294" stop-color="#4C7789"/>
<stop offset="0.711" stop-color="#22465F"/>
<stop offset="1" stop-color="#041727"/>
</linearGradient>
<linearGradient id="paint12_linear_28_176" x1="-230.489" y1="2067.45" x2="2456.87" y2="956.372" gradientUnits="userSpaceOnUse">
<stop stop-color="#8DA4AB"/>
<stop offset="0.2294" stop-color="#4C7789"/>
<stop offset="0.711" stop-color="#22465F"/>
<stop offset="1" stop-color="#041727"/>
</linearGradient>
<linearGradient id="paint13_linear_28_176" x1="-234.857" y1="2082.24" x2="2465.58" y2="954.859" gradientUnits="userSpaceOnUse">
<stop stop-color="#8DA4AB"/>
<stop offset="0.2294" stop-color="#4C7789"/>
<stop offset="0.711" stop-color="#22465F"/>
<stop offset="1" stop-color="#041727"/>
</linearGradient>
<linearGradient id="paint14_linear_28_176" x1="-239.285" y1="2097.04" x2="2474.18" y2="953.4" gradientUnits="userSpaceOnUse">
<stop stop-color="#8DA4AB"/>
<stop offset="0.2294" stop-color="#4C7789"/>
<stop offset="0.711" stop-color="#22465F"/>
<stop offset="1" stop-color="#041727"/>
</linearGradient>
<linearGradient id="paint15_linear_28_176" x1="-243.738" y1="2111.71" x2="2482.53" y2="951.729" gradientUnits="userSpaceOnUse">
<stop stop-color="#8DA4AB"/>
<stop offset="0.2294" stop-color="#4C7789"/>
<stop offset="0.711" stop-color="#22465F"/>
<stop offset="1" stop-color="#041727"/>
</linearGradient>
<linearGradient id="paint16_linear_28_176" x1="-248.147" y1="2126.48" x2="2490.86" y2="950.283" gradientUnits="userSpaceOnUse">
<stop stop-color="#8DA4AB"/>
<stop offset="0.2294" stop-color="#4C7789"/>
<stop offset="0.711" stop-color="#22465F"/>
<stop offset="1" stop-color="#041727"/>
</linearGradient>
<linearGradient id="paint17_linear_28_176" x1="-252.477" y1="2141.28" x2="2499.11" y2="949.04" gradientUnits="userSpaceOnUse">
<stop stop-color="#8DA4AB"/>
<stop offset="0.2294" stop-color="#4C7789"/>
<stop offset="0.711" stop-color="#22465F"/>
<stop offset="1" stop-color="#041727"/>
</linearGradient>
<linearGradient id="paint18_linear_28_176" x1="-256.913" y1="2156" x2="2507.19" y2="947.655" gradientUnits="userSpaceOnUse">
<stop stop-color="#8DA4AB"/>
<stop offset="0.2294" stop-color="#4C7789"/>
<stop offset="0.711" stop-color="#22465F"/>
<stop offset="1" stop-color="#041727"/>
</linearGradient>
<linearGradient id="paint19_linear_28_176" x1="-261.427" y1="2170.81" x2="2515.17" y2="946.409" gradientUnits="userSpaceOnUse">
<stop stop-color="#8DA4AB"/>
<stop offset="0.2294" stop-color="#4C7789"/>
<stop offset="0.711" stop-color="#22465F"/>
<stop offset="1" stop-color="#041727"/>
</linearGradient>
<linearGradient id="paint20_linear_28_176" x1="-265.78" y1="2185.56" x2="2523.08" y2="945.201" gradientUnits="userSpaceOnUse">
<stop stop-color="#8DA4AB"/>
<stop offset="0.2294" stop-color="#4C7789"/>
<stop offset="0.711" stop-color="#22465F"/>
<stop offset="1" stop-color="#041727"/>
</linearGradient>
<linearGradient id="paint21_linear_28_176" x1="-270.189" y1="2200.33" x2="2530.84" y2="944.073" gradientUnits="userSpaceOnUse">
<stop stop-color="#8DA4AB"/>
<stop offset="0.2294" stop-color="#4C7789"/>
<stop offset="0.711" stop-color="#22465F"/>
<stop offset="1" stop-color="#041727"/>
</linearGradient>
<linearGradient id="paint22_linear_28_176" x1="-274.604" y1="2215.01" x2="2538.51" y2="942.875" gradientUnits="userSpaceOnUse">
<stop stop-color="#8DA4AB"/>
<stop offset="0.2294" stop-color="#4C7789"/>
<stop offset="0.711" stop-color="#22465F"/>
<stop offset="1" stop-color="#041727"/>
</linearGradient>
<linearGradient id="paint23_linear_28_176" x1="-279.05" y1="2229.77" x2="2546.06" y2="941.811" gradientUnits="userSpaceOnUse">
<stop stop-color="#8DA4AB"/>
<stop offset="0.2294" stop-color="#4C7789"/>
<stop offset="0.711" stop-color="#22465F"/>
<stop offset="1" stop-color="#041727"/>
</linearGradient>
<linearGradient id="paint24_linear_28_176" x1="-283.438" y1="2244.58" x2="2553.61" y2="940.92" gradientUnits="userSpaceOnUse">
<stop stop-color="#8DA4AB"/>
<stop offset="0.2294" stop-color="#4C7789"/>
<stop offset="0.711" stop-color="#22465F"/>
<stop offset="1" stop-color="#041727"/>
</linearGradient>
<linearGradient id="paint25_linear_28_176" x1="-287.983" y1="2259.46" x2="2561.05" y2="940.107" gradientUnits="userSpaceOnUse">
<stop stop-color="#8DA4AB"/>
<stop offset="0.2294" stop-color="#4C7789"/>
<stop offset="0.711" stop-color="#22465F"/>
<stop offset="1" stop-color="#041727"/>
</linearGradient>
<linearGradient id="paint26_linear_28_176" x1="-292.368" y1="2274.07" x2="2568.29" y2="939.033" gradientUnits="userSpaceOnUse">
<stop stop-color="#8DA4AB"/>
<stop offset="0.2294" stop-color="#4C7789"/>
<stop offset="0.711" stop-color="#22465F"/>
<stop offset="1" stop-color="#041727"/>
</linearGradient>
<linearGradient id="paint27_linear_28_176" x1="-296.843" y1="2288.9" x2="2575.53" y2="938.293" gradientUnits="userSpaceOnUse">
<stop stop-color="#8DA4AB"/>
<stop offset="0.2294" stop-color="#4C7789"/>
<stop offset="0.711" stop-color="#22465F"/>
<stop offset="1" stop-color="#041727"/>
</linearGradient>
<linearGradient id="paint28_linear_28_176" x1="-301.158" y1="2303.66" x2="2582.73" y2="937.588" gradientUnits="userSpaceOnUse">
<stop stop-color="#8DA4AB"/>
<stop offset="0.2294" stop-color="#4C7789"/>
<stop offset="0.711" stop-color="#22465F"/>
<stop offset="1" stop-color="#041727"/>
</linearGradient>
<linearGradient id="paint29_linear_28_176" x1="-305.545" y1="2318.27" x2="2589.69" y2="936.678" gradientUnits="userSpaceOnUse">
<stop stop-color="#8DA4AB"/>
<stop offset="0.2294" stop-color="#4C7789"/>
<stop offset="0.711" stop-color="#22465F"/>
<stop offset="1" stop-color="#041727"/>
</linearGradient>
<linearGradient id="paint30_linear_28_176" x1="-310.012" y1="2333.18" x2="2596.77" y2="936.251" gradientUnits="userSpaceOnUse">
<stop stop-color="#8DA4AB"/>
<stop offset="0.2294" stop-color="#4C7789"/>
<stop offset="0.711" stop-color="#22465F"/>
<stop offset="1" stop-color="#041727"/>
</linearGradient>
<linearGradient id="paint31_linear_28_176" x1="-314.367" y1="2347.93" x2="2603.7" y2="935.696" gradientUnits="userSpaceOnUse">
<stop stop-color="#8DA4AB"/>
<stop offset="0.2294" stop-color="#4C7789"/>
<stop offset="0.711" stop-color="#22465F"/>
<stop offset="1" stop-color="#041727"/>
</linearGradient>
</defs>
</svg>
