<svg width="200" height="50" viewBox="0 0 200 50" fill="none" xmlns="http://www.w3.org/2000/svg">
<path d="M1.31719 49.2263V49.8848H0V42.659H1.31719V46.7191C1.31719 47.0484 1.31719 47.4151 1.27977 47.8118C1.51986 47.3067 1.80544 46.8244 2.13295 46.3711L4.2659 43.3775V42.6291H5.56438V49.8661H4.2659V46.1241C4.2659 45.473 4.2659 45.0315 4.29584 44.7994C4.04725 45.2996 3.76077 45.78 3.43892 46.2364L1.31719 49.2263Z" fill="#0F0100"/>
<path d="M12.3487 49.8848H11.0427V46.7416H8.28109V49.8848H6.97512V42.659H8.28109V45.6526H11.0427V42.659H12.3487V49.8848Z" fill="#0F0100"/>
<path d="M19.3911 45.7537L22.0629 49.8699H20.6036L18.3995 46.4721L17.9804 46.5994V49.8699H16.7381V46.5994L16.3152 46.4721L14.1149 49.8699H12.8314L15.3423 46.1166L13.0222 42.659H14.4517L16.4686 45.69L16.7381 45.7649V42.659H17.9804V45.7649L18.2498 45.69L20.2668 42.659H21.5503L19.3911 45.7537Z" fill="#0F0100"/>
<path d="M27.0323 49.8848H22.3286V42.659H26.9837V43.733H23.6159V45.6975H26.3101V46.7453H23.6159V48.7735H27.0136L27.0323 49.8848Z" fill="#0F0100"/>
<path d="M33.3451 49.8848H32.0392V46.7416H29.2776V49.8848H27.9716V42.659H29.2776V45.6526H32.0392V42.659H33.3451V49.8848Z" fill="#0F0100"/>
<path d="M39.4559 49.8848H34.7521V42.659H39.4072V43.733H36.0394V45.6975H38.7336V46.7453H36.0394V48.7735H39.4409L39.4559 49.8848Z" fill="#0F0100"/>
<path d="M41.6973 49.8848H40.4138V42.659H43.3775C43.7165 42.6321 44.0575 42.6751 44.3793 42.7851C44.7011 42.8952 44.9969 43.07 45.2485 43.2989C45.6507 43.7203 45.871 44.2831 45.8619 44.8655C45.8528 45.448 45.615 46.0036 45.1999 46.4123C44.7417 46.8289 44.1385 47.0492 43.5197 47.0259H41.7085L41.6973 49.8848ZM41.6973 45.8996H43.2428C43.5768 45.923 43.9069 45.8156 44.1633 45.6002C44.2698 45.4991 44.3533 45.3762 44.4082 45.24C44.463 45.1038 44.488 44.9574 44.4814 44.8107C44.4827 44.5332 44.3783 44.2656 44.1895 44.0623C44.0429 43.9404 43.8732 43.8494 43.6906 43.7947C43.508 43.74 43.3162 43.7229 43.1268 43.7442H41.6973V45.8996Z" fill="#0F0100"/>
<path d="M52.0889 49.8848H50.783V46.7416H48.0213V49.8848H46.7154V42.659H48.0213V45.6526H50.783V42.659H52.0889V49.8848Z" fill="#0F0100"/>
<path d="M56.1602 49.9971C55.7256 50.0175 55.2928 49.9293 54.9008 49.7405C54.5088 49.5517 54.17 49.2682 53.915 48.9157C53.3629 48.1367 53.0816 47.1981 53.1142 46.2439C53.0832 45.2897 53.3848 44.3545 53.9674 43.5983C54.232 43.2574 54.5732 42.9836 54.9632 42.799C55.3532 42.6144 55.7812 42.5241 56.2126 42.5355C56.6449 42.5176 57.0751 42.605 57.4662 42.7901C57.8573 42.9752 58.1976 43.2526 58.4578 43.5983C59.0235 44.3672 59.3123 45.3049 59.2773 46.2588C59.3236 47.2328 59.0225 48.1916 58.4279 48.9643C58.1561 49.3008 57.8097 49.5693 57.4161 49.7486C57.0224 49.9278 56.5925 50.0129 56.1602 49.9971ZM56.1602 48.9456C56.3907 48.9468 56.6184 48.8947 56.8254 48.7934C57.0325 48.6922 57.2133 48.5445 57.3539 48.3618C57.6795 47.9876 57.8441 47.2692 57.8441 46.2476C57.8785 45.5727 57.7394 44.9002 57.44 44.2943C57.3197 44.0696 57.1379 43.8838 56.9159 43.7586C56.6939 43.6334 56.4409 43.5739 56.1864 43.587C55.0713 43.587 54.5137 44.4864 54.5137 46.285C54.4713 46.9739 54.6188 47.6613 54.9403 48.272C55.0651 48.4855 55.2456 48.6609 55.4625 48.7796C55.6794 48.8982 55.9244 48.9556 56.1715 48.9456H56.1602Z" fill="#0F0100"/>
<path d="M63.2401 46.633V47.6247H60.5796V46.633H63.2401Z" fill="#0F0100"/>
<path d="M69.2723 47.3702L70.4809 47.5049C70.4279 48.1831 70.1299 48.8189 69.6427 49.2936C69.3885 49.5313 69.0894 49.7159 68.7631 49.8367C68.4367 49.9575 68.0895 50.012 67.7418 49.9971C67.1637 50.0246 66.5943 49.8484 66.1327 49.4994C65.7011 49.1396 65.3719 48.6724 65.1785 48.1448C64.9524 47.5472 64.8395 46.9127 64.8455 46.2738C64.8027 45.3147 65.079 44.3686 65.6313 43.5833C65.8622 43.2942 66.1489 43.0545 66.4744 42.8785C66.7999 42.7026 67.1575 42.5939 67.5258 42.559C67.8942 42.5241 68.2658 42.5636 68.6186 42.6753C68.9713 42.787 69.298 42.9685 69.5791 43.2091C70.0915 43.7187 70.4103 44.3908 70.4809 45.11L69.2723 45.2373C69.0515 44.1446 68.5575 43.5983 67.7979 43.5983C67.5663 43.5977 67.339 43.661 67.141 43.7811C66.9429 43.9013 66.7818 44.0736 66.6753 44.2793C66.3703 44.8913 66.231 45.5725 66.2712 46.2551C66.2273 46.9438 66.3777 47.6309 66.7052 48.2384C66.8202 48.4429 66.9876 48.6131 67.1902 48.7314C67.3927 48.8498 67.6232 48.9121 67.8578 48.9119C68.0433 48.9129 68.2268 48.8728 68.395 48.7945C68.5632 48.7163 68.712 48.6017 68.8307 48.4591C69.0968 48.1566 69.2525 47.7727 69.2723 47.3702Z" fill="#0F0100"/>
<path d="M73.86 49.8848H72.4605V43.7816H70.5371V42.659H75.7759V43.7816H73.8488L73.86 49.8848Z" fill="#0F0100"/>
<path d="M77.703 49.8848H76.3971V42.659H79.3607C79.6997 42.633 80.0404 42.6764 80.3621 42.7864C80.6838 42.8964 80.9797 43.0708 81.2318 43.2989C81.6321 43.7178 81.8531 44.2766 81.8475 44.856C81.8419 45.4355 81.6102 45.9899 81.2018 46.401C80.7437 46.8177 80.1405 47.038 79.5217 47.0147H77.7143L77.703 49.8848ZM77.703 45.8996H79.2448C79.5799 45.9224 79.9109 45.8152 80.169 45.6002C80.2749 45.4986 80.358 45.3757 80.4128 45.2396C80.4677 45.1035 80.493 44.9573 80.4871 44.8107C80.487 44.5328 80.3813 44.2653 80.1915 44.0623C80.0451 43.94 79.8755 43.8488 79.6928 43.7941C79.5101 43.7394 79.3182 43.7224 79.1287 43.7442H77.703V45.8996Z" fill="#0F0100"/>
<path d="M85.3854 49.9971C84.9508 50.0175 84.5179 49.9293 84.126 49.7405C83.734 49.5517 83.3952 49.2682 83.1402 48.9157C82.5881 48.1367 82.3068 47.1981 82.3394 46.2439C82.3084 45.2897 82.61 44.3545 83.1926 43.5983C83.4572 43.2574 83.7983 42.9836 84.1884 42.799C84.5784 42.6144 85.0064 42.5241 85.4378 42.5355C85.8701 42.5176 86.3003 42.605 86.6914 42.7901C87.0825 42.9752 87.4228 43.2526 87.683 43.5983C88.2486 44.3672 88.5375 45.3049 88.5025 46.2588C88.5477 47.2333 88.2453 48.1921 87.6493 48.9643C87.3785 49.3009 87.0328 49.5696 86.6397 49.7489C86.2467 49.9282 85.8171 50.0132 85.3854 49.9971ZM85.3854 48.9456C85.6159 48.9468 85.8435 48.8947 86.0506 48.7934C86.2576 48.6922 86.4385 48.5445 86.5791 48.3618C86.9047 47.9876 87.0656 47.2692 87.0656 46.2476C87.1009 45.573 86.9631 44.9006 86.6652 44.2943C86.5445 44.0699 86.3626 43.8844 86.1408 43.7592C85.9189 43.634 85.666 43.5743 85.4116 43.587C84.289 43.587 83.7352 44.4851 83.7352 46.285C83.7028 46.9771 83.8621 47.6647 84.1954 48.272C84.3175 48.4812 84.4932 48.6539 84.7043 48.7723C84.9155 48.8908 85.1545 48.9506 85.3966 48.9456H85.3854Z" fill="#0F0100"/>
<path d="M90.83 49.2263V49.8848H89.5241V42.659H90.83V46.7191C90.83 47.0484 90.83 47.4151 90.7926 47.8118C91.0327 47.3067 91.3183 46.8244 91.6458 46.3711L93.7788 43.3775V42.6291H95.0772V49.8661H93.7788V46.1241C93.7788 45.473 93.7788 45.0315 93.8087 44.7994C93.5602 45.3004 93.2724 45.7809 92.948 46.2364L90.83 49.2263Z" fill="#0F0100"/>
<path d="M99.0176 49.8848H97.6181V43.7816H95.6909V42.659H100.93V43.7816H99.0063L99.0176 49.8848Z" fill="#0F0100"/>
<path d="M106.273 49.8848H101.555V42.659H106.21V43.733H102.842V45.6975H105.536V46.7453H102.842V48.7735H106.273V49.8848Z" fill="#0F0100"/>
<path d="M107.37 49.8848H106.247L108.519 42.659H110.173L112.459 49.8961H111.059L109.23 43.8714H109.155L107.37 49.8848Z" fill="#0F0100"/>
<path d="M112.934 49.8848V42.659H114.24V45.4281H115.456C115.981 45.4075 116.505 45.472 117.009 45.6189C117.379 45.7579 117.688 46.023 117.881 46.3674C118.105 46.752 118.219 47.1909 118.21 47.6359C118.231 48.236 118.013 48.8198 117.604 49.2599C117.353 49.4895 117.057 49.6649 116.735 49.775C116.413 49.8851 116.072 49.9276 115.733 49.8998L112.934 49.8848ZM114.24 48.7622H115.628C116.459 48.7622 116.874 48.388 116.874 47.6396C116.874 46.8912 116.459 46.5033 115.628 46.4759H114.24V48.7622Z" fill="#0F0100"/>
<path d="M124.385 49.8848H123.083V46.7416H120.317V49.8848H119.015V42.659H120.317V45.6526H123.083V42.659H124.385V49.8848Z" fill="#0F0100"/>
<path d="M131.472 49.8848H130.076L129.5 48.1635H126.716L126.147 49.8848H125.025L127.434 42.659H129.044L131.472 49.8848ZM129.148 47.1158L128.093 43.8864L127.038 47.1158H129.148Z" fill="#0F0100"/>
<path d="M136.101 46.88H134.279L132.95 49.8736H131.641L133.171 46.6293C132.771 46.5127 132.422 46.2644 132.181 45.9249C131.94 45.5853 131.821 45.1742 131.843 44.7583C131.828 44.4642 131.88 44.1706 131.993 43.8988C132.106 43.627 132.279 43.3837 132.497 43.1866C132.989 42.7894 133.61 42.5869 134.241 42.6178H137.407V49.8549H136.101V46.88ZM136.101 43.703H134.454C134.118 43.6799 133.785 43.7782 133.515 43.9799C133.41 44.0734 133.327 44.189 133.272 44.3184C133.217 44.4478 133.192 44.5878 133.197 44.7283C133.195 44.8758 133.222 45.0222 133.278 45.1586C133.334 45.2951 133.417 45.4186 133.523 45.5217C133.664 45.6418 133.828 45.7328 134.004 45.7893C134.181 45.8458 134.367 45.8668 134.552 45.851H136.101V43.703Z" fill="#0F0100"/>
<path d="M147.039 49.8848H145.565L144.068 46.199L142.668 48.07V49.8998H141.362V42.659H142.668V46.4609C142.833 46.2027 142.953 46.0231 143.042 45.9258L145.415 42.659H146.736L145.018 45.0389L147.039 49.8848Z" fill="#0F0100"/>
<path d="M150.497 49.9971C150.062 50.0175 149.629 49.9293 149.237 49.7405C148.845 49.5517 148.506 49.2682 148.251 48.9157C147.698 48.1371 147.415 47.1985 147.447 46.2439C147.416 45.2897 147.717 44.3545 148.3 43.5983C148.565 43.2578 148.906 42.9844 149.296 42.7998C149.686 42.6152 150.114 42.5247 150.545 42.5355C150.978 42.5176 151.408 42.605 151.799 42.7901C152.19 42.9752 152.53 43.2526 152.79 43.5983C153.356 44.3672 153.645 45.3049 153.61 46.2588C153.655 47.2333 153.353 48.1921 152.757 48.9643C152.486 49.3004 152.141 49.5688 151.749 49.7481C151.356 49.9274 150.928 50.0126 150.497 49.9971ZM150.497 48.9456C150.727 48.9468 150.955 48.8947 151.162 48.7934C151.369 48.6922 151.55 48.5445 151.69 48.3618C152.016 47.9876 152.177 47.2692 152.177 46.2476C152.21 45.5731 152.073 44.9011 151.776 44.2943C151.656 44.0699 151.474 43.8844 151.252 43.7592C151.03 43.634 150.777 43.5743 150.523 43.587C149.4 43.587 148.846 44.4851 148.846 46.285C148.804 46.9739 148.951 47.6613 149.273 48.272C149.398 48.4858 149.579 48.6614 149.797 48.78C150.014 48.8987 150.26 48.9559 150.508 48.9456H150.497Z" fill="#0F0100"/>
<path d="M161.734 49.8848H160.405V43.5496L158.4 49.8848H157.715L155.702 43.5496V49.8848H154.635V42.659H156.675L158.194 47.3178L159.691 42.659H161.741L161.734 49.8848Z" fill="#0F0100"/>
<path d="M163.152 49.8848V42.659H168.331V49.8961H167.025V43.7068H164.454V49.8848H163.152Z" fill="#0F0100"/>
<path d="M175.415 49.8848H174.004L173.428 48.1635H170.644L170.075 49.8848H168.952L171.384 42.659H172.994L175.415 49.8848ZM173.091 47.1158L172.036 43.8864L170.98 47.1158H173.091Z" fill="#0F0100"/>
<path d="M181.488 49.8848H180.186V46.7416H177.42V49.8848H176.099V42.659H177.402V45.6526H180.167V42.659H181.488V49.8848Z" fill="#0F0100"/>
<path d="M184.182 49.2263V49.8848H182.876V42.659H184.182V46.7191C184.182 47.0484 184.182 47.4151 184.145 47.8118C184.385 47.3067 184.67 46.8244 184.998 46.3711L187.131 43.3775V42.6291H188.429V49.8661H187.131V46.1241C187.131 45.473 187.131 45.0315 187.161 44.7994C186.912 45.2996 186.626 45.78 186.304 46.2364L184.182 49.2263Z" fill="#0F0100"/>
<path d="M193.788 46.88H191.966L190.641 49.8736H189.346L190.873 46.6293C190.474 46.512 190.126 46.2635 189.886 45.9239C189.645 45.5844 189.526 45.1737 189.548 44.7583C189.533 44.4641 189.584 44.1702 189.698 43.8983C189.811 43.6264 189.984 43.3832 190.203 43.1866C190.693 42.7887 191.313 42.5861 191.943 42.6178H195.109V49.8549H193.807L193.788 46.88ZM193.788 43.703H192.138C191.803 43.6798 191.471 43.7781 191.202 43.9799C191.096 44.0725 191.012 44.1879 190.956 44.3174C190.9 44.447 190.874 44.5874 190.88 44.7283C190.878 44.8762 190.905 45.023 190.962 45.1595C191.019 45.296 191.103 45.4193 191.21 45.5217C191.351 45.6424 191.514 45.7337 191.691 45.7902C191.868 45.8468 192.054 45.8674 192.239 45.851H193.788V43.703Z" fill="#0F0100"/>
<path d="M0 39.4446H39.4446L19.7204 19.7204L0 39.4446Z" fill="#BD172E"/>
<path d="M0 0V39.4446L19.7204 19.7204L0 0Z" fill="#6C160F"/>
<path d="M19.7204 19.7204L39.4446 39.4446V0L19.7204 19.7204Z" fill="#E51C3A"/>
<path d="M39.4446 0H0L19.7204 19.7204L39.4446 0Z" fill="#BD172E"/>
<path d="M76.7526 6.78055C82.6013 6.78055 85.5239 9.54964 85.5239 13.5761C85.5283 14.8053 85.1607 16.0071 84.4695 17.0236C83.7782 18.0401 82.7957 18.8237 81.6509 19.2714C84.7268 20.0198 86.74 22.3474 86.74 25.8387C86.74 30.6247 83.245 33.8129 78.197 33.8129H64.4151V6.78055H76.7526ZM69.0477 18.0553H75.5027C79.0315 18.0553 80.8164 17.0674 80.8164 14.3357C80.8164 10.9679 78.3504 10.5937 75.6524 10.5937H69.0477V18.0553ZM69.0477 29.9399H76.1576C79.3458 29.9399 82.0064 29.1915 82.0064 25.7264C82.0064 21.9844 79.1587 21.4717 76.0827 21.4717H69.0477V29.9399Z" fill="#0F0100"/>
<path d="M113.417 33.8129H108.328L105.746 26.6357H95.0473L92.3905 33.8129H87.4847L97.9249 6.73564H102.973L113.417 33.8129ZM100.469 11.6751L96.256 23.0658H104.488L100.469 11.6751Z" fill="#0F0100"/>
<path d="M138.803 29.7116V6.78055H121.182V10.9566C121.182 18.3958 119.703 26.0669 117.653 29.7116H115.033V38.4455H119.629V33.8129H137.246V38.4455H141.823V29.7116H138.803ZM134.054 29.7116H122.738C124.407 26.3438 125.81 19.234 125.81 12.4984V10.8818H134.043L134.054 29.7116Z" fill="#0F0100"/>
<path d="M158.37 6.78055C163.949 6.78055 167.785 9.36254 167.785 15.013C167.785 20.1396 164.48 23.4063 159.013 23.4063H151.383V33.8092H146.639V6.78055H158.37ZM151.383 19.5745H157.988C161.064 19.5745 163.152 18.3209 163.152 15.1327C163.152 11.6377 160.57 10.7284 157.573 10.7284H151.383V19.5745Z" fill="#0F0100"/>
<path d="M196.145 20.2967C196.145 28.7238 190.869 34.4565 183.161 34.4565C175.452 34.4565 170.176 28.7238 170.176 20.2967C170.176 12.3599 174.962 6.13318 183.235 6.13318C190.869 6.13318 196.145 11.9034 196.145 20.2967ZM174.962 20.2069C174.962 26.5122 178.15 30.4601 183.235 30.4601C188.175 30.4601 191.363 26.4336 191.363 20.2481C191.363 14.0625 188.175 10.1035 183.161 10.1035C178.146 10.1035 174.962 14.1074 174.962 20.2069Z" fill="#0F0100"/>
<path d="M60.4411 33.8166H55.1723L43.6245 19.8439L54.9665 6.71319H60.2353L48.8932 19.8439L60.4411 33.8166Z" fill="#0F0100"/>
</svg>
