<svg width="100" height="100" viewBox="0 0 100 100" fill="none" xmlns="http://www.w3.org/2000/svg">
<g clip-path="url(#clip0_95_93)">
<path d="M72.8655 48.3822C72.8659 47.5747 72.6837 46.7775 72.3326 46.0503C71.9815 45.323 71.4705 44.6846 70.8378 44.1827C71.5 43.4029 71.9251 42.4499 72.0629 41.4362C72.2008 40.4225 72.0455 39.3905 71.6156 38.4622C71.1856 37.5339 70.4989 36.7481 69.6366 36.1976C68.7743 35.6471 67.7725 35.355 66.7494 35.3557H54.8345L55.3267 34.0536C56.1013 32.0133 56.4974 29.8489 56.4954 27.6665V27.4727C56.495 26.6513 56.3298 25.8384 56.0095 25.082C55.6892 24.3257 55.2204 23.6413 54.6308 23.0695C54.0412 22.4976 53.3428 22.05 52.577 21.753C51.8112 21.456 50.9936 21.3157 50.1726 21.3405C46.8163 21.5189 44.1941 24.3078 44.223 27.6691C44.223 29.2608 41.9862 32.9188 40.1742 35.3581H26.7364C25.8904 35.3581 25.2053 36.0434 25.2053 36.8892V67.5371C25.2053 68.3829 25.8904 69.0682 26.7364 69.0682H49.0354C49.437 69.0614 49.8199 68.8971 50.1015 68.6107C50.3831 68.3243 50.5409 67.9387 50.5409 67.5371C50.5409 67.1354 50.3831 66.7498 50.1015 66.4634C49.8199 66.177 49.437 66.0127 49.0354 66.0059H42.4624V37.4081C43.7593 35.6914 47.2855 30.741 47.2855 27.67C47.2453 25.961 48.5553 24.5224 50.2599 24.401C50.6718 24.3883 51.0821 24.4585 51.4665 24.6073C51.8509 24.7561 52.2015 24.9805 52.4975 25.2672C52.7932 25.5541 53.0283 25.8974 53.1889 26.2768C53.3494 26.6562 53.4322 27.064 53.4322 27.476V27.67C53.4338 29.4815 53.1052 31.278 52.4625 32.9717L51.186 36.3511C51.0983 36.5829 51.0681 36.8325 51.0981 37.0785C51.1281 37.3245 51.2174 37.5596 51.3582 37.7635C51.499 37.9674 51.6873 38.1341 51.9067 38.2493C52.1261 38.3645 52.3702 38.4247 52.6181 38.4248H66.7486C68.0183 38.4248 69.0479 39.4543 69.0479 40.7241C69.0479 41.9945 68.0183 43.0241 66.7486 43.0241C65.9027 43.0241 65.2174 43.7094 65.2174 44.5552C65.2174 45.4011 65.9027 46.0864 66.7486 46.0864H67.5023C68.7727 46.0864 69.8034 47.116 69.8034 48.3866C69.8034 49.6572 68.7727 50.6868 67.5023 50.6868H66.7486C65.9027 50.6868 65.2174 51.3719 65.2174 52.218C65.2174 53.0638 65.9027 53.7491 66.7486 53.7491C68.0183 53.7491 69.0479 54.7787 69.0479 56.0491C69.0479 57.3189 68.0183 58.3485 66.7486 58.3485H64.3519C63.9503 58.3552 63.5674 58.5196 63.2858 58.806C63.0042 59.0924 62.8464 59.4779 62.8464 59.8796C62.8464 60.2813 63.0042 60.6668 63.2858 60.9533C63.5674 61.2397 63.9503 61.404 64.3519 61.4108C65.6225 61.4108 66.6521 62.4403 66.6521 63.711C66.6521 64.9805 65.6225 66.0101 64.3519 66.0101H54.2483C53.8467 66.0169 53.4638 66.1812 53.1822 66.4676C52.9006 66.754 52.7428 67.1396 52.7428 67.5412C52.7428 67.9429 52.9006 68.3285 53.1822 68.6149C53.4638 68.9013 53.8467 69.0656 54.2483 69.0724H64.3519C65.3026 69.0732 66.2364 68.8211 67.0576 68.342C67.8787 67.8629 68.5577 67.174 69.0248 66.346C69.492 65.518 69.7305 64.5806 69.7159 63.63C69.7013 62.6794 69.4341 61.7498 68.9418 60.9365C69.7006 60.5966 70.3699 60.0849 70.8968 59.4417C71.4237 58.7986 71.7938 58.0417 71.9779 57.2309C72.1615 56.4201 72.1541 55.5777 71.9561 54.7702C71.7581 53.9627 71.3751 53.2124 70.8372 52.5784C71.4693 52.0768 71.9801 51.4389 72.3313 50.7123C72.6825 49.9858 72.8651 49.1892 72.8655 48.3822ZM28.2676 38.4212H39.3999V66.0059H28.2676V38.4212ZM32.779 57.1275C30.5779 57.1275 28.7947 58.9115 28.7947 61.1117C28.7947 63.3127 30.5779 65.096 32.779 65.096C34.979 65.096 36.763 63.3127 36.763 61.1117C36.7606 58.9124 34.9782 57.1301 32.779 57.1275ZM32.779 62.0328C32.6579 62.0329 32.538 62.0091 32.4261 61.9628C32.3142 61.9165 32.2125 61.8486 32.1269 61.763C32.0413 61.6774 31.9733 61.5757 31.927 61.4638C31.8807 61.3519 31.8569 61.232 31.857 61.1109C31.857 60.9897 31.8808 60.8698 31.9272 60.7578C31.9735 60.6459 32.0415 60.5442 32.1272 60.4586C32.2129 60.3729 32.3146 60.305 32.4266 60.2588C32.5385 60.2125 32.6585 60.1888 32.7797 60.1889C33.0207 60.1943 33.2501 60.2938 33.4186 60.4662C33.5871 60.6386 33.6814 60.8702 33.6813 61.1113C33.6812 61.3524 33.5867 61.5839 33.418 61.7561C33.2493 61.9284 33.0198 62.0277 32.7788 62.0328H32.779ZM96.4922 46.3548C95.8019 47.4452 95.4355 48.7092 95.4355 49.9998C95.4355 51.2903 95.8019 52.5543 96.4922 53.6448C97.1918 54.7444 97.6664 55.9719 97.8884 57.2561C98.1103 58.5404 98.0753 59.856 97.7852 61.1266C97.4952 62.3973 96.9559 63.5978 96.1986 64.6585C95.4414 65.7193 94.4812 66.6193 93.3737 67.3063C92.2787 67.9894 91.4002 68.9692 90.8403 70.1319C90.2803 71.2946 90.0619 72.5924 90.2105 73.8743C90.3641 75.1685 90.2592 76.4804 89.9021 77.7338C89.5449 78.9873 88.9426 80.1574 88.1299 81.1763C87.3174 82.1953 86.3108 83.0429 85.1685 83.6702C84.0261 84.2975 82.7707 84.6919 81.4749 84.8307C80.1921 84.9701 78.9753 85.471 77.9661 86.275C76.9569 87.0789 76.1967 88.153 75.774 89.3721C75.3506 90.6048 74.6869 91.7412 73.8212 92.7155C72.9556 93.6898 71.9052 94.4827 70.7309 95.0482C69.5566 95.6137 68.2819 95.9406 66.9804 96.01C65.6789 96.0793 64.3766 95.8898 63.1488 95.4523C61.932 95.0219 60.618 94.9459 59.3596 95.2331C58.1013 95.5204 56.9504 96.1591 56.0408 97.0749C55.1245 98.0017 54.0335 98.7375 52.8308 99.2397C51.6282 99.7419 50.3378 100 49.0345 100C47.7312 100 46.4409 99.7419 45.2382 99.2397C44.0356 98.7375 42.9445 98.0017 42.0282 97.0749C41.1189 96.1587 39.968 95.5199 38.7096 95.2326C37.4511 94.9453 36.137 95.0215 34.9202 95.4523C33.6925 95.8896 32.3903 96.0789 31.0889 96.0094C29.7876 95.9399 28.5129 95.6128 27.3388 95.0472C26.1647 94.4818 25.1143 93.6891 24.2487 92.715C23.3831 91.7408 22.7193 90.6046 22.2959 89.3721C21.8738 88.1526 21.1139 87.078 20.1048 86.2735C19.0957 85.4691 17.8788 84.9678 16.5959 84.8281C15.3 84.6893 14.0445 84.2948 12.9021 83.6675C11.7598 83.0402 10.7532 82.1925 9.94063 81.1735C9.1281 80.1545 8.52577 78.9844 8.16852 77.7311C7.81128 76.4777 7.7062 75.1659 7.85939 73.8717C8.00816 72.5897 7.78986 71.2919 7.22989 70.1292C6.66992 68.9664 5.79131 67.9866 4.69626 67.3037C3.58913 66.6167 2.6293 65.7169 1.87236 64.6563C1.11543 63.5958 0.576419 62.3956 0.286561 61.1253C-0.0033078 59.8549 -0.0383853 58.5397 0.183358 57.2557C0.405102 55.9717 0.879264 54.7444 1.57841 53.6448C2.26867 52.5543 2.63511 51.2903 2.63511 49.9998C2.63511 48.7092 2.26867 47.4452 1.57841 46.3548C0.878584 45.2553 0.403907 44.0279 0.181884 42.7436C-0.0401395 41.4593 -0.00509477 40.1438 0.284988 38.8732C0.57507 37.6025 1.11442 36.4021 1.87179 35.3414C2.62916 34.2808 3.58949 33.381 4.69714 32.6941C4.86794 32.5881 5.05797 32.5167 5.25636 32.4842C5.45474 32.4516 5.6576 32.4585 5.85334 32.5043C6.04908 32.5502 6.23386 32.6342 6.39713 32.7515C6.56039 32.8688 6.69895 33.0171 6.80487 33.188C7.01895 33.5331 7.08721 33.9491 6.99463 34.3445C6.90205 34.74 6.65621 35.0824 6.31118 35.2966C5.54777 35.7699 4.88593 36.39 4.36404 37.121C3.84216 37.8521 3.47062 38.6794 3.27098 39.5552C3.07094 40.4309 3.0467 41.3376 3.19967 42.2227C3.35264 43.1079 3.67977 43.9539 4.16211 44.7116C5.16383 46.2938 5.69563 48.128 5.69563 50.0006C5.69563 51.8733 5.16383 53.7075 4.16211 55.2897C3.67984 56.0475 3.35274 56.8935 3.19978 57.7786C3.04681 58.6637 3.07101 59.5704 3.27098 60.4461C3.47075 61.3219 3.84233 62.1493 4.3642 62.8804C4.88607 63.6116 5.54785 64.2318 6.31118 64.7053C7.90022 65.6962 9.17521 67.1179 9.98777 68.8051C10.8003 70.4922 11.1171 72.3755 10.9011 74.2356C10.7952 75.1276 10.8674 76.0318 11.1135 76.8957C11.3596 77.7596 11.7747 78.5661 12.3348 79.2684C12.8948 79.9708 13.5887 80.555 14.3762 80.9872C15.1636 81.4194 16.029 81.691 16.9222 81.7864C18.784 81.9895 20.5498 82.7173 22.014 83.8849C23.4783 85.0526 24.5808 86.612 25.1933 88.3819C25.485 89.2313 25.9424 90.0144 26.5389 90.6858C27.1354 91.3572 27.8592 91.9036 28.6683 92.2933C29.4775 92.683 30.3559 92.9083 31.2528 92.9561C32.1496 93.004 33.047 92.8734 33.893 92.572C35.6586 91.947 37.5654 91.8365 39.3914 92.2532C41.2174 92.67 42.8874 93.5969 44.207 94.926C44.8385 95.5647 45.5904 96.0718 46.4192 96.4179C47.248 96.764 48.1372 96.9422 49.0354 96.9423C49.9336 96.9424 50.8229 96.7642 51.6517 96.4181C52.4805 96.072 53.2324 95.5648 53.8638 94.926C55.1834 93.597 56.8534 92.6701 58.6793 92.2534C60.5052 91.8366 62.412 91.9471 64.1776 92.572C65.0236 92.8733 65.9211 93.0039 66.818 92.956C67.7149 92.9082 68.5933 92.6829 69.4025 92.2932C70.2117 91.9035 70.9356 91.3571 71.5322 90.6857C72.1288 90.0144 72.5863 89.2313 72.8782 88.3819C73.4906 86.612 74.5932 85.0526 76.0574 83.8849C77.5217 82.7173 79.2874 81.9895 81.1492 81.7864C82.0423 81.6907 82.9075 81.4189 83.6949 80.9866C84.4822 80.5543 85.1759 79.9701 85.7359 79.2678C86.2959 78.5656 86.7111 77.7592 86.9573 76.8954C87.2036 76.0317 87.2761 75.1276 87.1705 74.2356C86.9547 72.3754 87.2714 70.492 88.084 68.8047C88.8965 67.1174 90.1715 65.6955 91.7605 64.7045C92.5236 64.2308 93.1852 63.6104 93.707 62.8793C94.2288 62.1482 94.6003 61.3208 94.8002 60.4451C95 59.5695 95.0242 58.6628 94.8713 57.7777C94.7184 56.8926 94.3914 56.0467 93.9093 55.2888C92.9076 53.7066 92.3758 51.8724 92.3758 49.9998C92.3758 48.1271 92.9076 46.293 93.9093 44.7108C94.3917 43.953 94.7188 43.107 94.8718 42.2219C95.0247 41.3367 95.0005 40.43 94.8005 39.5543C94.6007 38.6786 94.2291 37.8514 93.7073 37.1203C93.1854 36.3893 92.5237 35.7692 91.7605 35.2957C90.171 34.3051 88.8957 32.8833 88.083 31.1959C87.2702 29.5085 86.9535 27.625 87.1697 25.7646C87.2753 24.8725 87.2029 23.9684 86.9567 23.1045C86.7104 22.2406 86.2952 21.4342 85.735 20.7319C85.1751 20.0296 84.4814 19.4453 83.6941 19.0129C82.9067 18.5806 82.0415 18.3087 81.1483 18.2132C79.2866 18.0101 77.5208 17.2824 76.0565 16.1148C74.5923 14.9471 73.4898 13.3876 72.8775 11.6177C72.5857 10.7682 72.1283 9.98512 71.5317 9.31373C70.9351 8.64233 70.2112 8.09599 69.4019 7.70635C68.5927 7.3167 67.7142 7.09151 66.8173 7.04381C65.9204 6.99611 65.0229 7.12685 64.1769 7.42846C62.4113 8.05318 60.5045 8.1636 58.6786 7.74686C56.8526 7.33011 55.1826 6.40335 53.8629 5.07443C53.2315 4.43555 52.4797 3.92833 51.6508 3.58218C50.822 3.23603 49.9327 3.05783 49.0345 3.05791C48.1363 3.05803 47.2471 3.23634 46.4183 3.58252C45.5895 3.9287 44.8376 4.43587 44.2062 5.07465C42.8864 6.40351 41.2163 7.33021 39.3904 7.74688C37.5645 8.16355 35.6577 8.05305 33.8921 7.42824C33.0462 7.12666 32.1488 6.99593 31.252 7.04361C30.3551 7.0913 29.4767 7.31645 28.6674 7.70603C27.8583 8.09589 27.1346 8.64235 26.5381 9.31378C25.9416 9.98521 25.4842 10.7683 25.1924 11.6177C24.5804 13.3872 23.4785 14.9467 22.0149 16.1144C20.5513 17.2822 18.7861 18.0103 16.9249 18.2141C15.8762 18.3226 14.8675 18.6754 13.9799 19.2443C13.0922 19.8132 12.3503 20.5823 11.8137 21.4898C11.7159 21.6726 11.582 21.8335 11.4202 21.963C11.2584 22.0924 11.072 22.1877 10.8723 22.243C10.6725 22.2983 10.4637 22.3125 10.2583 22.2847C10.053 22.2569 9.85538 22.1877 9.67755 22.0813C9.49971 21.9749 9.34533 21.8335 9.22375 21.6657C9.10217 21.4978 9.01592 21.3071 8.97023 21.105C8.92454 20.9028 8.92036 20.6935 8.95794 20.4897C8.99552 20.2859 9.07408 20.0919 9.18886 19.9193C9.96705 18.6027 11.0433 17.487 12.3311 16.662C13.6188 15.8369 15.0822 15.3255 16.6035 15.1688C17.8848 15.028 19.0999 14.5265 20.1075 13.7226C21.1151 12.9187 21.874 11.8455 22.2959 10.6275C22.7194 9.39483 23.3833 8.25848 24.2491 7.28423C25.1149 6.30997 26.1654 5.51718 27.3397 4.95175C28.514 4.38632 29.7889 4.05951 31.0904 3.99023C32.3919 3.92095 33.6942 4.11059 34.922 4.54815C36.1388 4.9785 37.4528 5.05447 38.7111 4.76722C39.9694 4.47998 41.1202 3.84133 42.0297 2.92558C42.946 1.99873 44.0371 1.26288 45.2398 0.760678C46.4425 0.25847 47.7328 -0.00012207 49.0362 -0.00012207C50.3395 -0.00012207 51.6299 0.25847 52.8325 0.760678C54.0352 1.26288 55.1263 1.99873 56.0426 2.92558C56.9523 3.84103 58.1032 4.47948 59.3615 4.76671C60.6198 5.05393 61.9337 4.97815 63.1506 4.54815C64.3782 4.11093 65.6804 3.92152 66.9818 3.99091C68.2831 4.06029 69.5577 4.38709 70.7319 4.95238C71.9058 5.518 72.9559 6.31081 73.8214 7.28493C74.6868 8.25905 75.3505 9.39514 75.774 10.6275C76.1963 11.8471 76.9563 12.9218 77.9655 13.7264C78.9748 14.5309 80.1918 15.0323 81.4749 15.1721C82.7707 15.3109 84.0261 15.7054 85.1685 16.3327C86.3108 16.9599 87.3174 17.8076 88.1299 18.8265C88.9426 19.8455 89.5449 21.0156 89.9021 22.269C90.2592 23.5224 90.3641 24.8343 90.2105 26.1286C90.0621 27.4106 90.2807 28.7083 90.8408 29.871C91.4009 31.0337 92.2795 32.0135 93.3745 32.6965C94.4819 33.3835 95.442 34.2835 96.1991 35.3442C96.9562 36.4049 97.4952 37.6052 97.7851 38.8758C98.0753 40.1464 98.1105 41.4619 97.8886 42.7462C97.6667 44.0304 97.1921 45.2579 96.4924 46.3574L96.4922 46.3548ZM7.54091 29.1235C7.87219 28.161 7.98115 27.1359 7.85961 26.1253C7.81715 25.7246 7.93433 25.3232 8.18575 25.0083C8.43717 24.6934 8.80257 24.4903 9.20274 24.4429C9.60292 24.3956 10.0056 24.5079 10.3236 24.7554C10.6415 25.003 10.8491 25.3659 10.9013 25.7655C11.073 27.2316 10.9149 28.7184 10.4383 30.1161C10.3064 30.5003 10.0274 30.8164 9.6626 30.9951C9.2978 31.1737 8.877 31.2003 8.49263 31.0689C8.10854 30.937 7.79254 30.658 7.61408 30.2932C7.43562 29.9284 7.4093 29.5077 7.54091 29.1235ZM79.0229 33.5664C78.0182 31.7378 76.8484 30.0049 75.5282 28.3894C75.2711 28.075 75.1494 27.6713 75.19 27.2672C75.2305 26.8631 75.4299 26.4916 75.7444 26.2345C76.0588 25.9775 76.4625 25.8558 76.8666 25.8964C77.2707 25.9369 77.6422 26.1363 77.8992 26.4508C79.3354 28.2101 80.6086 30.0964 81.703 32.0865C81.8354 32.3222 81.903 32.5888 81.8989 32.8591C81.8949 33.1294 81.8194 33.3938 81.6801 33.6255C81.5406 33.857 81.3423 34.0475 81.1054 34.1776C80.8685 34.3078 80.6013 34.3729 80.3311 34.3664C80.0609 34.3598 79.7972 34.282 79.5668 34.1406C79.3364 33.9992 79.1476 33.7994 79.0194 33.5614L79.0229 33.5664ZM72.5308 23.0562C72.4052 23.2132 72.25 23.3439 72.0739 23.4408C71.8978 23.5377 71.7043 23.599 71.5045 23.6212C71.3047 23.6433 71.1025 23.6259 70.9094 23.5698C70.7164 23.5138 70.5362 23.4203 70.3793 23.2946C64.3343 18.4254 56.7978 15.7846 49.0356 15.8156C34.3307 15.8318 21.2878 25.2613 16.6619 39.2194C12.0359 53.1773 16.8654 68.529 28.6497 77.3253C40.433 86.121 56.5247 86.385 68.591 77.9808C80.6573 69.5757 85.9881 54.3907 81.8218 40.2884C81.7131 39.9009 81.7612 39.4861 81.9559 39.1339C82.1505 38.7816 82.476 38.5201 82.862 38.406C83.2479 38.2919 83.6633 38.3343 84.0182 38.5241C84.3731 38.7138 84.6391 39.0357 84.7586 39.42C89.9938 57.0651 81.5663 75.889 64.9178 83.737C48.2698 91.5853 28.3864 86.1055 18.1076 70.8385C7.82877 55.5707 10.2322 35.0864 23.7673 22.6144C37.3016 10.1412 57.9132 9.41501 72.2924 20.9039C72.4494 21.0295 72.5802 21.1848 72.6772 21.361C72.7741 21.5372 72.8355 21.7307 72.8576 21.9306C72.8797 22.1305 72.8623 22.3328 72.8062 22.5259C72.7501 22.7191 72.6566 22.8993 72.5308 23.0562Z" fill="url(#paint0_linear_95_93)"/>
</g>
<defs>
<linearGradient id="paint0_linear_95_93" x1="0.0379028" y1="-0.00012207" x2="103.253" y2="5.71491" gradientUnits="userSpaceOnUse">
<stop stop-color="#BD172E"/>
<stop offset="1" stop-color="#E51C3A"/>
</linearGradient>
<clipPath id="clip0_95_93">
<rect width="100" height="100" fill="white"/>
</clipPath>
</defs>
</svg>
