<svg width="100" height="100" viewBox="0 0 100 100" fill="none" xmlns="http://www.w3.org/2000/svg">
<path d="M6.10156 77.4844V59.8672C6.10156 59.5046 6.24561 59.1568 6.502 58.9004C6.7584 58.644 7.10615 58.5 7.46875 58.5C7.83135 58.5 8.1791 58.644 8.4355 58.9004C8.6919 59.1568 8.83594 59.5046 8.83594 59.8672V77.4844C8.83594 77.847 8.6919 78.1947 8.4355 78.4511C8.1791 78.7075 7.83135 78.8516 7.46875 78.8516C7.10615 78.8516 6.7584 78.7075 6.502 78.4511C6.24561 78.1947 6.10156 77.847 6.10156 77.4844ZM7.46875 54.9844C7.83135 54.9844 8.1791 54.8403 8.4355 54.5839C8.6919 54.3275 8.83594 53.9798 8.83594 53.6172V43.25C8.83594 42.8874 8.6919 42.5396 8.4355 42.2833C8.1791 42.0269 7.83135 41.8828 7.46875 41.8828C7.10615 41.8828 6.7584 42.0269 6.502 42.2833C6.24561 42.5396 6.10156 42.8874 6.10156 43.25V53.6172C6.10146 53.7968 6.13675 53.9746 6.20542 54.1405C6.2741 54.3064 6.3748 54.4572 6.50177 54.5842C6.62875 54.7111 6.77951 54.8118 6.94543 54.8805C7.11135 54.9492 7.28918 54.9845 7.46875 54.9844ZM17.5734 35.7031H49.6164C49.979 35.7031 50.3268 35.5591 50.5832 35.3027C50.8396 35.0463 50.9836 34.6985 50.9836 34.3359C50.9836 33.9733 50.8396 33.6256 50.5832 33.3692C50.3268 33.1128 49.979 32.9688 49.6164 32.9688H17.5734C17.2108 32.9688 16.8631 33.1128 16.6067 33.3692C16.3503 33.6256 16.2063 33.9733 16.2063 34.3359C16.2063 34.6985 16.3503 35.0463 16.6067 35.3027C16.8631 35.5591 17.2108 35.7031 17.5734 35.7031ZM17.5734 45.9305H49.6164C49.979 45.9305 50.3268 45.7864 50.5832 45.53C50.8396 45.2736 50.9836 44.9259 50.9836 44.5633C50.9836 44.2007 50.8396 43.8529 50.5832 43.5965C50.3268 43.3401 49.979 43.1961 49.6164 43.1961H17.5734C17.2108 43.1961 16.8631 43.3401 16.6067 43.5965C16.3503 43.8529 16.2063 44.2007 16.2063 44.5633C16.2063 44.9259 16.3503 45.2736 16.6067 45.53C16.8631 45.7864 17.2108 45.9305 17.5734 45.9305ZM17.5734 56.1578H43.0094C43.372 56.1578 43.7197 56.0138 43.9761 55.7574C44.2325 55.501 44.3766 55.1532 44.3766 54.7906C44.3766 54.428 44.2325 54.0803 43.9761 53.8239C43.7197 53.5675 43.372 53.4234 43.0094 53.4234H17.5734C17.2108 53.4234 16.8631 53.5675 16.6067 53.8239C16.3503 54.0803 16.2063 54.428 16.2063 54.7906C16.2063 55.1532 16.3503 55.501 16.6067 55.7574C16.8631 56.0138 17.2108 56.1578 17.5734 56.1578ZM17.5734 66.3852H43.0094C43.372 66.3852 43.7197 66.2411 43.9761 65.9847C44.2325 65.7283 44.3766 65.3806 44.3766 65.018C44.3766 64.6554 44.2325 64.3076 43.9761 64.0512C43.7197 63.7948 43.372 63.6508 43.0094 63.6508H17.5734C17.2108 63.6508 16.8631 63.7948 16.6067 64.0512C16.3503 64.3076 16.2063 64.6554 16.2063 65.018C16.2063 65.3806 16.3503 65.7283 16.6067 65.9847C16.8631 66.2411 17.2108 66.3852 17.5734 66.3852ZM17.5734 76.6125H43.0094C43.372 76.6125 43.7197 76.4685 43.9761 76.2121C44.2325 75.9557 44.3766 75.6079 44.3766 75.2453C44.3766 74.8827 44.2325 74.535 43.9761 74.2786C43.7197 74.0222 43.372 73.8781 43.0094 73.8781H17.5734C17.2108 73.8781 16.8631 74.0222 16.6067 74.2786C16.3503 74.535 16.2063 74.8827 16.2063 75.2453C16.2063 75.6079 16.3503 75.9557 16.6067 76.2121C16.8631 76.4685 17.2108 76.6125 17.5734 76.6125ZM17.5734 86.8391H43.0094C43.372 86.8391 43.7197 86.695 43.9761 86.4386C44.2325 86.1822 44.3766 85.8345 44.3766 85.4719C44.3766 85.1093 44.2325 84.7615 43.9761 84.5051C43.7197 84.2487 43.372 84.1047 43.0094 84.1047H17.5734C17.2108 84.1047 16.8631 84.2487 16.6067 84.5051C16.3503 84.7615 16.2063 85.1093 16.2063 85.4719C16.2063 85.8345 16.3503 86.1822 16.6067 86.4386C16.8631 86.695 17.2108 86.8391 17.5734 86.8391ZM93.3547 84.5227C93.1157 84.7026 92.8244 84.7993 92.5252 84.7979C92.2261 84.7965 91.9357 84.6971 91.6984 84.5148L84.9641 79.3375L83.5938 87.7211C83.5454 88.0162 83.4016 88.2873 83.1845 88.4929C82.9673 88.6985 82.6887 88.8272 82.3914 88.8594C82.3426 88.8647 82.2936 88.8673 82.2445 88.8672C81.9706 88.867 81.703 88.7845 81.4765 88.6305C81.25 88.4764 81.075 88.2578 80.9742 88.0031L75.2344 73.5023V88.1406C75.2315 90.5743 74.2634 92.9075 72.5425 94.6284C70.8216 96.3493 68.4884 97.3174 66.0547 97.3203H15.2812C12.8475 97.3176 10.5141 96.3496 8.7932 94.6287C7.07226 92.9077 6.10425 90.5744 6.10156 88.1406V83.7344C6.10156 83.3718 6.24561 83.024 6.502 82.7676C6.7584 82.5112 7.10615 82.3672 7.46875 82.3672C7.83135 82.3672 8.1791 82.5112 8.4355 82.7676C8.6919 83.024 8.83594 83.3718 8.83594 83.7344V88.1406C8.8378 89.8495 9.51745 91.4878 10.7258 92.6961C11.9341 93.9044 13.5724 94.5841 15.2812 94.5859H66.0547C67.7635 94.5841 69.4018 93.9044 70.6102 92.6961C71.8185 91.4878 72.4981 89.8495 72.5 88.1406V73.543L66.7789 88.0031C66.6779 88.2577 66.5029 88.4762 66.2764 88.6302C66.05 88.7842 65.7825 88.8668 65.5086 88.8672C65.4593 88.8673 65.41 88.8647 65.3609 88.8594C65.0635 88.8272 64.7848 88.6984 64.5677 88.4926C64.3505 88.2869 64.2068 88.0156 64.1586 87.7203L62.7859 79.3375L56.0516 84.5141C55.8145 84.6967 55.5239 84.7965 55.2246 84.7981C54.9253 84.7996 54.6338 84.7029 54.3948 84.5226C54.1559 84.3424 53.9827 84.0887 53.9019 83.8005C53.8211 83.5123 53.8372 83.2055 53.9477 82.9273L61.157 64.6992C61.1164 64.657 61.0734 64.6211 61.0344 64.5727C60.596 64.0691 60.2774 63.4727 60.1025 62.8284C59.9275 62.1841 59.9008 61.5085 60.0242 60.8523C60.0878 60.5069 60.0437 60.1503 59.8978 59.8309C59.7519 59.5114 59.5113 59.2445 59.2086 59.0664C58.6332 58.7287 58.1412 58.2657 57.7691 57.7119C57.3971 57.1581 57.1545 56.5276 57.0593 55.8672C56.9641 55.2069 57.0189 54.5335 57.2195 53.8972C57.4201 53.2609 57.7613 52.6778 58.218 52.1914C58.4579 51.9349 58.6136 51.611 58.6638 51.2633C58.7141 50.9156 58.6567 50.5609 58.4992 50.2469C58.1971 49.6516 58.033 48.9959 58.0192 48.3284C58.0054 47.661 58.1422 46.999 58.4194 46.3918C58.6966 45.7845 59.1071 45.2475 59.6205 44.8207C60.1338 44.3939 60.7367 44.0883 61.3844 43.9266C61.7248 43.8402 62.0307 43.6517 62.2607 43.3863C62.4907 43.1209 62.634 42.7914 62.6711 42.4422C62.7388 41.778 62.9554 41.1376 63.3046 40.5686C63.6538 39.9996 64.1268 39.5166 64.6883 39.1555C65.2498 38.7944 65.8855 38.5644 66.5481 38.4827C67.2107 38.401 67.8832 38.4697 68.5156 38.6836C68.8487 38.7948 69.2078 38.8013 69.5447 38.7023C69.8816 38.6033 70.1801 38.4035 70.4 38.1297C70.9415 37.4491 71.6721 36.9438 72.5 36.6773V11.8594C72.4981 10.1505 71.8185 8.51223 70.6102 7.30391C69.4018 6.09558 67.7635 5.41592 66.0547 5.41406H29.0484V23.8516C29.0484 24.2142 28.9044 24.5619 28.648 24.8183C28.3916 25.0747 28.0438 25.2187 27.6812 25.2187H8.83594V37C8.83594 37.3626 8.6919 37.7104 8.4355 37.9667C8.1791 38.2231 7.83135 38.3672 7.46875 38.3672C7.10615 38.3672 6.7584 38.2231 6.502 37.9667C6.24561 37.7104 6.10156 37.3626 6.10156 37V23.8516C6.10186 23.7632 6.1105 23.675 6.12734 23.5883C6.16348 23.4429 6.21809 23.3027 6.28984 23.1711C6.49062 22.8227 6.16484 23.2492 12.8609 16.6562L26.7242 3.07187C26.7391 3.05703 26.7578 3.05 26.7734 3.03594C27.0213 2.80961 27.344 2.68275 27.6797 2.67969H66.0547C68.4884 2.68258 70.8216 3.65065 72.5425 5.37155C74.2634 7.09245 75.2315 9.42566 75.2344 11.8594V36.6727C76.0679 36.9382 76.8039 37.445 77.3492 38.1289C77.5683 38.4039 77.8669 38.6047 78.2043 38.7038C78.5416 38.8029 78.9013 38.7956 79.2344 38.6828C79.8667 38.4686 80.5391 38.3997 81.2018 38.4812C81.8644 38.5627 82.5001 38.7924 83.0617 39.1534C83.6233 39.5144 84.0962 39.9974 84.4455 40.5663C84.7947 41.1353 85.0112 41.7757 85.0789 42.4398C85.1153 42.7894 85.2582 43.1192 85.4884 43.3848C85.7186 43.6503 86.0248 43.8386 86.3656 43.9242C87.0134 44.0859 87.6164 44.3916 88.1298 44.8184C88.6432 45.2452 89.0538 45.7823 89.3311 46.3896C89.6084 46.997 89.7453 47.659 89.7315 48.3266C89.7177 48.9941 89.5537 49.6499 89.2516 50.2453C89.0937 50.5587 89.0358 50.9131 89.0858 51.2604C89.1358 51.6078 89.2913 51.9314 89.5312 52.1875C89.9878 52.6739 90.3291 53.2568 90.5297 53.8931C90.7303 54.5293 90.7851 55.2025 90.6901 55.8629C90.5952 56.5232 90.3528 57.1537 89.9809 57.7075C89.6091 58.2614 89.1174 58.7245 88.5422 59.0625C88.2393 59.2404 87.9985 59.5073 87.8524 59.8268C87.7064 60.1463 87.6622 60.503 87.7258 60.8484C87.8503 61.5049 87.8243 62.1811 87.6499 62.8262C87.4755 63.4712 87.1571 64.0683 86.7188 64.5727C86.6797 64.618 86.6359 64.657 86.5953 64.7L93.8047 82.9273C93.9146 83.2057 93.93 83.5125 93.8487 83.8005C93.7674 84.0886 93.5939 84.3428 93.3547 84.5227ZM26.3141 22.4914V7.30703L15.6547 17.7469L10.8164 22.4883L26.3141 22.4914ZM62.7125 61.3555C62.6653 61.608 62.6759 61.868 62.7435 62.1159C62.8112 62.3638 62.9341 62.5932 63.1031 62.7867C63.2685 62.9844 63.4779 63.1407 63.7145 63.2429C63.9511 63.3452 64.2083 63.3907 64.4656 63.3758C65.3784 63.3403 66.2801 63.5861 67.0487 64.0799C67.8172 64.5737 68.4155 65.2917 68.7625 66.1367C68.8596 66.3744 69.0091 66.5872 69.1997 66.7593C69.3904 66.9313 69.6173 67.0582 69.8638 67.1305C70.1102 67.2028 70.3697 67.2186 70.6231 67.1768C70.8765 67.135 71.1172 67.0367 71.3273 66.8891C72.077 66.3689 72.9677 66.0902 73.8801 66.0902C74.7925 66.0902 75.6832 66.3689 76.4328 66.8891C76.6429 67.0367 76.8836 67.135 77.1369 67.1768C77.3902 67.2186 77.6497 67.2028 77.8961 67.1305C78.1424 67.0582 78.3693 66.9313 78.5599 66.7593C78.7505 66.5872 78.8998 66.3744 78.9969 66.1367C79.3406 65.2894 79.9382 64.5693 80.7075 64.0751C81.4768 63.5809 82.3802 63.3369 83.2937 63.3766C83.5504 63.3869 83.806 63.3392 84.0417 63.2372C84.2774 63.1352 84.4871 62.9814 84.6552 62.7872C84.8233 62.5931 84.9456 62.3635 85.0128 62.1157C85.0801 61.8678 85.0907 61.608 85.0438 61.3555C84.8785 60.4573 84.9934 59.5301 85.3728 58.6995C85.7522 57.8688 86.3778 57.1749 87.1648 56.7117C87.3862 56.5817 87.5754 56.4035 87.7185 56.1904C87.8616 55.9773 87.9549 55.7347 87.9914 55.4806C88.028 55.2265 88.0069 54.9674 87.9296 54.7226C87.8524 54.4778 87.721 54.2535 87.5453 54.0664C86.9207 53.4003 86.516 52.5582 86.386 51.6543C86.2561 50.7504 86.4071 49.8284 86.8187 49.0133C86.935 48.7841 86.9981 48.5317 87.0034 48.2748C87.0086 48.0179 86.9559 47.7631 86.8492 47.5293C86.7425 47.2956 86.5844 47.0889 86.3868 46.9246C86.1892 46.7603 85.9571 46.6427 85.7078 46.5805C84.8223 46.3579 84.0265 45.8685 83.4284 45.1786C82.8303 44.4887 82.4588 43.6316 82.3641 42.7234C82.338 42.468 82.2548 42.2217 82.1205 42.0028C81.9862 41.784 81.8043 41.5982 81.5884 41.4593C81.3725 41.3203 81.128 41.2318 80.8732 41.2003C80.6183 41.1688 80.3597 41.1952 80.1164 41.2773C79.2508 41.5691 78.3163 41.5877 77.4398 41.3304C76.5632 41.0731 75.787 40.5524 75.2164 39.8391C75.051 39.6467 74.846 39.4923 74.6155 39.3864C74.3849 39.2806 74.1342 39.2258 73.8805 39.2258C73.6268 39.2258 73.3761 39.2806 73.1455 39.3864C72.9149 39.4923 72.7099 39.6467 72.5445 39.8391C71.9741 40.5523 71.1982 41.0729 70.322 41.3303C69.4458 41.5877 68.5116 41.5695 67.6461 41.2781C67.4028 41.1947 67.1438 41.1673 66.8884 41.1978C66.633 41.2284 66.3878 41.3162 66.171 41.4546C65.9543 41.5931 65.7715 41.7787 65.6364 41.9975C65.5013 42.2164 65.4173 42.4629 65.3906 42.7188C65.2961 43.627 64.9246 44.4843 64.3265 45.1744C63.7284 45.8645 62.9325 46.354 62.0469 46.5766C61.7977 46.6389 61.5658 46.7566 61.3684 46.9208C61.171 47.0851 61.0131 47.2918 60.9065 47.5254C60.7999 47.7591 60.7474 48.0138 60.7527 48.2705C60.7581 48.5273 60.8212 48.7796 60.9375 49.0086C61.3491 49.8237 61.5002 50.7457 61.3702 51.6496C61.2402 52.5535 60.8355 53.3956 60.2109 54.0617C60.0349 54.2487 59.9033 54.473 59.8259 54.7178C59.7485 54.9627 59.7273 55.2218 59.7639 55.476C59.8004 55.7302 59.8938 55.9729 60.0371 56.186C60.1804 56.3991 60.3698 56.5772 60.5914 56.707C61.3784 57.1702 62.0041 57.8641 62.3835 58.6948C62.7629 59.5254 62.8778 60.4527 62.7125 61.3508V61.3555ZM71.0094 69.8836C70.0233 70.0335 69.0155 69.8476 68.1479 69.3556C67.2803 68.8636 66.6033 68.0942 66.2258 67.1711C65.6844 65.843 64.3406 66.1828 63.5695 66.0406L58.3117 79.3281L62.9328 75.775C63.1205 75.631 63.3423 75.5381 63.5765 75.5054C63.8108 75.4728 64.0496 75.5014 64.2694 75.5887C64.4893 75.6759 64.6828 75.8187 64.831 76.0031C64.9792 76.1875 65.077 76.4071 65.1148 76.6406L66.057 82.3961L71.0094 69.8836ZM89.4383 79.3367L84.1789 66.0383C83.8485 66.0996 83.5124 66.1245 83.1766 66.1125C81.0672 65.9906 81.843 68.8242 78.6633 69.757C78.0401 69.9417 77.3839 69.9867 76.7414 69.8891L81.6922 82.4039L82.6352 76.6469C82.6739 76.4139 82.7724 76.195 82.9209 76.0114C83.0695 75.8278 83.2631 75.6858 83.4828 75.5992C83.7025 75.5127 83.9409 75.4845 84.1748 75.5175C84.4087 75.5505 84.63 75.6435 84.8172 75.7875L89.4383 79.3367ZM65.175 53.4469C65.175 51.7262 65.6852 50.0441 66.6412 48.6134C67.5972 47.1827 68.9559 46.0676 70.5457 45.4091C72.1354 44.7506 73.8847 44.5784 75.5723 44.914C77.2599 45.2497 78.8101 46.0783 80.0268 47.295C81.2435 48.5118 82.0721 50.062 82.4078 51.7496C82.7435 53.4372 82.5712 55.1865 81.9128 56.7762C81.2543 58.3659 80.1392 59.7247 78.7085 60.6807C77.2778 61.6366 75.5957 62.1469 73.875 62.1469C71.5684 62.1442 69.3571 61.2267 67.7261 59.5957C66.0952 57.9647 65.1777 55.7534 65.175 53.4469ZM67.9094 53.4469C67.9094 54.6268 68.2593 55.7802 68.9148 56.7612C69.5703 57.7422 70.502 58.5069 71.5921 58.9584C72.6821 59.4099 73.8816 59.5281 75.0388 59.2979C76.1961 59.0677 77.259 58.4995 78.0933 57.6652C78.9276 56.8309 79.4958 55.7679 79.726 54.6107C79.9562 53.4535 79.838 52.254 79.3865 51.1639C78.935 50.0739 78.1704 49.1422 77.1893 48.4866C76.2083 47.8311 75.0549 47.4813 73.875 47.4813C72.2934 47.4831 70.7771 48.1122 69.6587 49.2306C68.5404 50.349 67.9112 51.8653 67.9094 53.4469Z" fill="url(#paint0_linear_95_89)"/>
<defs>
<linearGradient id="paint0_linear_95_89" x1="6.10156" y1="2.67969" x2="98.6069" y2="7.5287" gradientUnits="userSpaceOnUse">
<stop stop-color="#BD172E"/>
<stop offset="1" stop-color="#E51C3A"/>
</linearGradient>
</defs>
</svg>
