<svg width="100" height="100" viewBox="0 0 100 100" fill="none" xmlns="http://www.w3.org/2000/svg">
<path d="M6.83594 75.7813V94.5313C6.83594 94.8939 6.6919 95.2416 6.4355 95.498C6.1791 95.7544 5.83135 95.8984 5.46875 95.8984C5.10615 95.8984 4.7584 95.7544 4.502 95.498C4.24561 95.2416 4.10156 94.8939 4.10156 94.5313V75.7813C4.10156 75.4187 4.24561 75.0709 4.502 74.8145C4.7584 74.5581 5.10615 74.4141 5.46875 74.4141C5.83135 74.4141 6.1791 74.5581 6.4355 74.8145C6.6919 75.0709 6.83594 75.4187 6.83594 75.7813ZM5.46875 63.5563C5.10642 63.5563 4.75891 63.7001 4.50255 63.9562C4.2462 64.2122 4.10198 64.5596 4.10156 64.9219V68.8047C4.10156 69.1673 4.24561 69.515 4.502 69.7714C4.7584 70.0278 5.10615 70.1719 5.46875 70.1719C5.83135 70.1719 6.1791 70.0278 6.4355 69.7714C6.6919 69.515 6.83594 69.1673 6.83594 68.8047V64.9219C6.83552 64.5596 6.6913 64.2122 6.43495 63.9562C6.17859 63.7001 5.83108 63.5563 5.46875 63.5563ZM17.1875 74.4156C16.8252 74.4156 16.4777 74.5595 16.2213 74.8155C15.965 75.0716 15.8207 75.4189 15.8203 75.7813V94.5313C15.8203 94.8939 15.9644 95.2416 16.2208 95.498C16.4771 95.7544 16.8249 95.8984 17.1875 95.8984C17.5501 95.8984 17.8979 95.7544 18.1542 95.498C18.4106 95.2416 18.5547 94.8939 18.5547 94.5313V75.7813C18.5547 75.4187 18.4106 75.0709 18.1542 74.8145C17.8979 74.5581 17.5501 74.4141 17.1875 74.4141V74.4156ZM95.8984 64.9219V91.7969C95.8972 92.8843 95.4647 93.9268 94.6957 94.6958C93.9268 95.4647 92.8843 95.8972 91.7969 95.8984H79.1969C78.8343 95.8984 78.4865 95.7544 78.2301 95.498C77.9737 95.2416 77.8297 94.8939 77.8297 94.5313C77.8297 94.1687 77.9737 93.8209 78.2301 93.5645C78.4865 93.3081 78.8343 93.1641 79.1969 93.1641H91.7969C92.1593 93.1637 92.5069 93.0195 92.7632 92.7632C93.0195 92.5069 93.1637 92.1594 93.1641 91.7969V77.4094L72.3125 81.0742C72.1558 81.1013 71.9957 81.1013 71.8391 81.0742L50.9867 77.4094V91.7969C50.9871 92.1594 51.1313 92.5069 51.3876 92.7632C51.6439 93.0195 51.9914 93.1637 52.3539 93.1641H72.0758C72.4384 93.1641 72.7861 93.3081 73.0425 93.5645C73.2989 93.8209 73.443 94.1687 73.443 94.5313C73.443 94.8939 73.2989 95.2416 73.0425 95.498C72.7861 95.7544 72.4384 95.8984 72.0758 95.8984H52.3539C51.2665 95.8972 50.224 95.4647 49.455 94.6958C48.6861 93.9268 48.2536 92.8843 48.2523 91.7969V64.9219C48.2523 64.5593 48.3964 64.2115 48.6528 63.9551C48.9092 63.6987 49.2569 63.5547 49.6195 63.5547H63.3594C63.0795 61.9224 62.2988 60.4175 61.1255 59.2487C59.9522 58.0798 58.4443 57.3049 56.8109 57.0313L47.9242 55.5188L43.3102 65.5516C43.2224 65.7423 43.0918 65.9103 42.9287 66.0424C42.7655 66.1746 42.5741 66.2674 42.3692 66.3136C42.1644 66.3599 41.9517 66.3583 41.7476 66.3091C41.5434 66.2598 41.3534 66.1642 41.1922 66.0297L40.0539 65.0781L38.9023 67.5781L41.9828 94.375C42.0034 94.5534 41.9886 94.734 41.9394 94.9067C41.8901 95.0794 41.8073 95.2406 41.6958 95.3813C41.5842 95.522 41.446 95.6393 41.2891 95.7265C41.1322 95.8138 40.9596 95.8693 40.7812 95.8899C40.4212 95.9303 40.0598 95.8265 39.776 95.6012C39.4923 95.3759 39.3093 95.0474 39.2672 94.6875L36.2812 68.7274H34.0313L31.0453 94.6875C31.007 95.0208 30.8474 95.3283 30.5971 95.5516C30.3467 95.7749 30.023 95.8983 29.6875 95.8984C29.6353 95.8986 29.5831 95.8958 29.5312 95.8899C29.3529 95.8693 29.1803 95.8138 29.0234 95.7265C28.8665 95.6393 28.7283 95.522 28.6167 95.3813C28.5052 95.2406 28.4224 95.0794 28.3731 94.9067C28.3239 94.734 28.3091 94.5534 28.3297 94.375L31.4102 67.5836L30.2586 65.0836L29.1203 66.0336C28.959 66.1681 28.7689 66.2637 28.5647 66.313C28.3606 66.3622 28.1478 66.3638 27.9429 66.3175C27.738 66.2713 27.5466 66.1785 27.3833 66.0464C27.2201 65.9142 27.0894 65.7463 27.0016 65.5555L22.3922 55.5227L13.5016 57.0313C11.8443 57.3094 10.3176 58.1052 9.14062 59.3047C8.88618 59.5637 8.53927 59.711 8.17622 59.7142C7.81316 59.7175 7.46369 59.5763 7.20469 59.3219C6.94569 59.0674 6.79837 58.7205 6.79515 58.3575C6.79192 57.9944 6.93306 57.645 7.1875 57.386C8.76878 55.7746 10.8202 54.706 13.0469 54.3336L28.0734 51.7789V47.4039C27.7877 47.2383 27.5078 47.0627 27.2344 46.8774C22.4086 43.5774 19.7078 39.086 19.368 33.8344L17.3414 33.4508C16.3135 33.2555 15.386 32.7078 14.7186 31.9021C14.0511 31.0963 13.6857 30.083 13.6852 29.0367V26.7008C13.688 25.7975 14.0209 24.9264 14.6212 24.2514C15.2215 23.5765 16.0478 23.1442 16.9445 23.036V16.6297C16.9537 14.4689 17.7379 12.3831 19.1547 10.7516C20.5715 9.12007 22.5267 8.05112 24.6648 7.73908L25.8867 7.56642C26.6341 6.49813 27.6277 5.62553 28.7836 5.02244C29.9395 4.41934 31.2236 4.10348 32.5273 4.10158H41.3555C43.1429 4.09861 44.9083 4.49558 46.5223 5.26341C48.1364 6.03123 49.5582 7.15046 50.6836 8.53908C50.797 8.67835 50.8818 8.83859 50.9332 9.01065C50.9847 9.1827 51.0017 9.3632 50.9834 9.54185C50.9651 9.72049 50.9118 9.89378 50.8265 10.0518C50.7412 10.2098 50.6256 10.3495 50.4863 10.4629C50.3471 10.5763 50.1868 10.6611 50.0148 10.7125C49.8427 10.764 49.6622 10.781 49.4836 10.7627C49.3049 10.7444 49.1316 10.6911 48.9736 10.6058C48.8156 10.5205 48.6759 10.4049 48.5625 10.2656C47.6932 9.19244 46.5948 8.32739 45.3477 7.73393C44.1006 7.14047 42.7366 6.83365 41.3555 6.83595H32.5273C31.5869 6.8376 30.6633 7.08593 29.8489 7.55615C29.0344 8.02637 28.3576 8.70202 27.8859 9.51564C27.7821 9.69518 27.6388 9.84879 27.4669 9.9649C27.2951 10.081 27.0991 10.1566 26.8937 10.186L25.05 10.4469C23.5629 10.6636 22.2029 11.4069 21.2175 12.5415C20.2321 13.6762 19.6867 15.1269 19.6805 16.6297V22.9883H20.2633L23.4984 20.7031V17.1563C23.4984 16.9556 23.5425 16.7574 23.6277 16.5757C23.7129 16.394 23.837 16.2333 23.9913 16.1049C24.1456 15.9766 24.3262 15.8838 24.5204 15.8331C24.7146 15.7825 24.9175 15.7752 25.1148 15.8117C28.431 16.4113 31.7877 16.7597 35.1562 16.8539C38.5246 16.7593 41.8811 16.4104 45.1969 15.8102C45.3942 15.7735 45.5973 15.7807 45.7915 15.8313C45.9858 15.8819 46.1666 15.9747 46.3209 16.103C46.4753 16.2314 46.5995 16.3921 46.6847 16.5739C46.77 16.7556 46.8141 16.9539 46.8141 17.1547V20.7031L50.0539 22.9899H50.6359V16.1258C50.6359 15.7632 50.78 15.4154 51.0364 15.159C51.2928 14.9027 51.6405 14.7586 52.0031 14.7586C52.3657 14.7586 52.7135 14.9027 52.9699 15.159C53.2263 15.4154 53.3703 15.7632 53.3703 16.1258V23.0344C54.2672 23.1425 55.0937 23.5747 55.6942 24.2496C56.2946 24.9246 56.6276 25.7958 56.6305 26.6992V29.0352C56.6297 30.0812 56.2642 31.0943 55.597 31.9C54.9298 32.7056 54.0026 33.2535 52.975 33.4492L50.9437 33.8328C50.6039 39.0844 47.9031 43.5758 43.0773 46.8797C42.8031 47.0664 42.5227 47.2399 42.2383 47.4063V51.7813L57.2656 54.3336C58.7031 54.5759 60.076 55.1092 61.3002 55.9007C62.5245 56.6922 63.5742 57.7253 64.3852 58.9367C64.8683 58.2237 65.5187 57.64 66.2796 57.2366C67.0406 56.8332 67.8888 56.6224 68.75 56.6227H75.4008C76.7989 56.6243 78.1392 57.1804 79.1278 58.1691C80.1164 59.1577 80.6726 60.498 80.6742 61.8961V63.5563H94.5312C94.8936 63.5563 95.2411 63.7001 95.4974 63.9562C95.7538 64.2122 95.898 64.5596 95.8984 64.9219ZM52.9195 25.7227H50.9867V31.0422L52.4656 30.7625C52.8678 30.686 53.2307 30.4716 53.4918 30.1563C53.7529 29.841 53.8959 29.4445 53.8961 29.0352V26.6992C53.8959 26.4403 53.7929 26.192 53.6098 26.0089C53.4267 25.8258 53.1785 25.7229 52.9195 25.7227ZM17.8477 30.7625L19.3258 31.0422V25.7227H17.393C17.134 25.7229 16.8858 25.8258 16.7027 26.0089C16.5196 26.192 16.4166 26.4403 16.4164 26.6992V29.0352C16.4167 29.4447 16.5598 29.8412 16.821 30.1565C17.0823 30.4718 17.4454 30.6861 17.8477 30.7625ZM28.7742 44.618C30.6581 45.8937 32.8811 46.5756 35.1562 46.5756C37.4314 46.5756 39.6544 45.8937 41.5383 44.618C45.9914 41.5711 48.2523 37.5602 48.2523 32.693V25.0641L44.6586 22.5266C44.4799 22.4003 44.3342 22.233 44.2336 22.0388C44.133 21.8445 44.0805 21.6289 44.0805 21.4102V18.7703C41.129 19.2555 38.1467 19.5288 35.1562 19.5883C32.1661 19.5287 29.184 19.2554 26.2328 18.7703V21.4102C26.2328 21.6289 26.1803 21.8445 26.0797 22.0388C25.9791 22.233 25.8333 22.4003 25.6547 22.5266L22.0609 25.0641V32.693C22.0602 37.5602 24.3195 41.5719 28.7742 44.618ZM30.8055 48.6172V52.4047L35.1562 57.1789L39.5078 52.4047V48.6164C36.6794 49.5346 33.6331 49.5346 30.8047 48.6164L30.8055 48.6172ZM33.1852 59.0734L28.9305 54.4063L25.1805 55.0438L28.7398 62.7852L33.1852 59.0734ZM37.8797 63.2633L35.1562 60.9891L32.4336 63.2633L33.6883 65.993H36.6242L37.8797 63.2633ZM45.1328 55.0438L41.3828 54.4063L37.1289 59.0734L41.5742 62.7852L45.1328 55.0438ZM66.2109 61.8961V63.5563H77.9398V61.8961C77.939 61.223 77.6712 60.5776 77.1953 60.1016C76.7193 59.6256 76.0739 59.3579 75.4008 59.357H68.75C68.0769 59.3579 67.4315 59.6256 66.9555 60.1016C66.4795 60.5776 66.2118 61.223 66.2109 61.8961ZM93.1641 74.6305V66.2906H50.9867V74.6336L72.0758 78.3391L93.1641 74.6305Z" fill="url(#paint0_linear_30_239)"/>
<defs>
<linearGradient id="paint0_linear_30_239" x1="4.10156" y1="4.10156" x2="100.777" y2="9.56405" gradientUnits="userSpaceOnUse">
<stop stop-color="#BD172E"/>
<stop offset="1" stop-color="#E51C3A"/>
</linearGradient>
</defs>
</svg>
